<svg xmlns="http://www.w3.org/2000/svg" xmlns:xlink="http://www.w3.org/1999/xlink" viewBox="0 0 2150 2530" width="2150" height="2530" preserveAspectRatio="xMidYMid meet" style="width: 100%; height: 100%; transform: translate3d(0px, 0px, 0px); content-visibility: visible;"><defs><clipPath id="__lottie_element_3"><rect width="2150" height="2530" x="0" y="0"></rect></clipPath></defs><g clip-path="url(#__lottie_element_3)"><g transform="matrix(-0.7702841758728027,0.6377007961273193,-0.6377007961273193,-0.7702841758728027,649.71728515625,2159.173583984375)" opacity="1" style="display: none;"><g opacity="1" transform="matrix(1,0,0,1,-481.5,171.48699951171875)"><path stroke-linecap="butt" stroke-linejoin="round" fill-opacity="0" stroke="rgb(9,9,9)" stroke-opacity="1" stroke-width="41" d=" M0,-54 C29.802600860595703,-54 54,-29.802600860595703 54,0 C54,29.802600860595703 29.802600860595703,54 0,54 C-29.802600860595703,54 -54,29.802600860595703 -54,0 C-54,-29.802600860595703 -29.802600860595703,-54 0,-54z"></path></g></g><g style="display: none;" transform="matrix(-0.899573028087616,-0.43677037954330444,0.43677037954330444,-0.899573028087616,1136.67724609375,1429.9591064453125)" opacity="1"><g opacity="1" transform="matrix(1,0,0,1,-481.5,171.48699951171875)"><path stroke-linecap="butt" stroke-linejoin="round" fill-opacity="0" stroke="rgb(9,9,9)" stroke-opacity="1" stroke-width="41" d=" M0,-54 C29.802600860595703,-54 54,-29.802600860595703 54,0 C54,29.802600860595703 29.802600860595703,54 0,54 C-29.802600860595703,54 -54,29.802600860595703 -54,0 C-54,-29.802600860595703 -29.802600860595703,-54 0,-54z"></path></g></g><g style="display: none;" transform="matrix(1,0,0,1,2111.59912109375,1021.4130249023438)" opacity="1"><g opacity="1" transform="matrix(1,0,0,1,-474,171.48699951171875)"><path stroke-linecap="butt" stroke-linejoin="miter" fill-opacity="0" stroke-miterlimit="4" stroke="rgb(204,80,255)" stroke-opacity="1" stroke-width="38" d=" M0,-55 C30.35449981689453,-55 55,-30.35449981689453 55,0 C55,30.35449981689453 30.35449981689453,55 0,55 C-30.35449981689453,55 -55,30.35449981689453 -55,0 C-55,-30.35449981689453 -30.35449981689453,-55 0,-55z"></path></g></g><g style="display: none;" transform="matrix(-0.06811976432800293,0.9976771473884583,-0.9976771473884583,-0.06811976432800293,1783.2647705078125,1970.36767578125)" opacity="1"><g opacity="1" transform="matrix(1,0,0,1,-474,171.48699951171875)"><path stroke-linecap="butt" stroke-linejoin="miter" fill-opacity="0" stroke-miterlimit="4" stroke="rgb(204,80,255)" stroke-opacity="1" stroke-width="38" d=" M0,-55 C30.35449981689453,-55 55,-30.35449981689453 55,0 C55,30.35449981689453 30.35449981689453,55 0,55 C-30.35449981689453,55 -55,30.35449981689453 -55,0 C-55,-30.35449981689453 -30.35449981689453,-55 0,-55z"></path></g></g><g transform="matrix(0,1,-1,0,1416.4420166015625,1541.615966796875)" opacity="1" style="display: block;"><g opacity="1" transform="matrix(1,0,0,1,37.25,74.25)"><path fill="rgb(204,236,195)" fill-opacity="1" d=" M37.10100173950195,74 C37.10100173950195,74 37.13399887084961,31.709999084472656 37.13399887084961,31.709999084472656 C37.13399887084961,31.709999084472656 37.10100173950195,31.709999084472656 37.10100173950195,31.709999084472656 C19.597999572753906,31.709999084472656 5.3480000495910645,17.479000091552734 5.3480000495910645,0 C5.3480000495910645,-17.479000091552734 19.597999572753906,-31.708999633789062 37.10100173950195,-31.708999633789062 C37.10100173950195,-31.708999633789062 37.13399887084961,-31.708999633789062 37.13399887084961,-31.708999633789062 C37.13399887084961,-31.708999633789062 37.13399887084961,-74 37.13399887084961,-74 C37.13399887084961,-74 37.10100173950195,-74 37.10100173950195,-74 C-3.7720000743865967,-74 -37,-40.81700134277344 -37,0 C-37,40.81700134277344 -3.7720000743865967,74 37.10100173950195,74z"></path></g></g><g transform="matrix(0,-1,1,0,1267.9420166015625,1541.9150390625)" opacity="1" style="display: block;"><g opacity="1" transform="matrix(1,0,0,1,37.25,74.25)"><path fill="rgb(204,236,195)" fill-opacity="1" d=" M37.10100173950195,74 C37.10100173950195,74 37.13399887084961,31.709999084472656 37.13399887084961,31.709999084472656 C37.13399887084961,31.709999084472656 37.10100173950195,31.709999084472656 37.10100173950195,31.709999084472656 C19.597999572753906,31.709999084472656 5.3480000495910645,17.479000091552734 5.3480000495910645,0 C5.3480000495910645,-17.479000091552734 19.597999572753906,-31.708999633789062 37.10100173950195,-31.708999633789062 C37.10100173950195,-31.708999633789062 37.13399887084961,-31.708999633789062 37.13399887084961,-31.708999633789062 C37.13399887084961,-31.708999633789062 37.13399887084961,-74 37.13399887084961,-74 C37.13399887084961,-74 37.10100173950195,-74 37.10100173950195,-74 C-3.7720000743865967,-74 -37,-40.81700134277344 -37,0 C-37,40.81700134277344 -3.7720000743865967,74 37.10100173950195,74z"></path></g></g><g transform="matrix(-0.9719590544700623,0.23515024781227112,-0.23515024781227112,-0.9719590544700623,494.9351806640625,1984.80078125)" opacity="1" style="display: none;"><path stroke-linecap="butt" stroke-linejoin="miter" fill-opacity="0" stroke-miterlimit="4" stroke="rgb(9,9,9)" stroke-opacity="1" stroke-width="4" d=" M-474,97.49 C-433.16,97.49 -400,130.65 -400,171.49 C-400,212.33 -433.16,245.49 -474,245.49 C-514.84,245.49 -548,212.33 -548,171.49 C-548,130.65 -514.84,97.49 -474,97.49z"></path><g opacity="1" transform="matrix(1,0,0,1,-474,171.48699951171875)"></g></g><g style="display: block;" transform="matrix(-0.921556293964386,-0.3882448077201843,0.3882448077201843,-0.921556293964386,1042.991943359375,1768.3829345703125)" opacity="1"><path stroke-linecap="butt" stroke-linejoin="miter" fill-opacity="0" stroke-miterlimit="4" stroke="rgb(9,9,9)" stroke-opacity="1" stroke-width="4" d=" M-474,97.49 C-433.16,97.49 -400,130.65 -400,171.49 C-400,212.33 -433.16,245.49 -474,245.49 C-514.84,245.49 -548,212.33 -548,171.49 C-548,130.65 -514.84,97.49 -474,97.49z"></path><g opacity="1" transform="matrix(1,0,0,1,-474,171.48699951171875)"></g></g><g style="display: none;" transform="matrix(0.5018284916877747,0.8649671673774719,-0.8649671673774719,0.5018284916877747,1674.2677001953125,1704.6947021484375)" opacity="1"><g opacity="1" transform="matrix(1,0,0,1,-474,171.48699951171875)"><path fill="rgb(204,236,195)" fill-opacity="1" d=" M0,-74 C40.840599060058594,-74 74,-40.840599060058594 74,0 C74,40.840599060058594 40.840599060058594,74 0,74 C-40.840599060058594,74 -74,40.840599060058594 -74,0 C-74,-40.840599060058594 -40.840599060058594,-74 0,-74z"></path><path fill="rgb(204,236,195)" fill-opacity="1" d=" M0,-74 C40.840599060058594,-74 74,-40.840599060058594 74,0 C74,40.840599060058594 40.840599060058594,74 0,74 C-40.840599060058594,74 -74,40.840599060058594 -74,0 C-74,-40.840599060058594 -40.840599060058594,-74 0,-74z"></path></g></g><g style="display: none;" transform="matrix(-0.40312743186950684,-0.9151438474655151,0.9151438474655151,-0.40312743186950684,1079.7333984375,1522.10693359375)" opacity="1"><g opacity="1" transform="matrix(1,0,0,1,-474,171.48699951171875)"><path fill="rgb(204,236,195)" fill-opacity="1" d=" M0,-74 C40.840599060058594,-74 74,-40.840599060058594 74,0 C74,40.840599060058594 40.840599060058594,74 0,74 C-40.840599060058594,74 -74,40.840599060058594 -74,0 C-74,-40.840599060058594 -40.840599060058594,-74 0,-74z"></path><path fill="rgb(204,236,195)" fill-opacity="1" d=" M0,-74 C40.840599060058594,-74 74,-40.840599060058594 74,0 C74,40.840599060058594 40.840599060058594,74 0,74 C-40.840599060058594,74 -74,40.840599060058594 -74,0 C-74,-40.840599060058594 -40.840599060058594,-74 0,-74z"></path></g></g><g transform="matrix(-0.860835075378418,0.508884072303772,-0.508884072303772,-0.860835075378418,580.603271484375,2129.55908203125)" opacity="1" style="display: none;"><g opacity="1" transform="matrix(1,0,0,1,-474,171.48699951171875)"><path fill="rgb(204,236,195)" fill-opacity="1" d=" M0,-74 C40.840599060058594,-74 74,-40.840599060058594 74,0 C74,40.840599060058594 40.840599060058594,74 0,74 C-40.840599060058594,74 -74,40.840599060058594 -74,0 C-74,-40.840599060058594 -40.840599060058594,-74 0,-74z"></path><path fill="rgb(204,236,195)" fill-opacity="1" d=" M0,-74 C40.840599060058594,-74 74,-40.840599060058594 74,0 C74,40.840599060058594 40.840599060058594,74 0,74 C-40.840599060058594,74 -74,40.840599060058594 -74,0 C-74,-40.840599060058594 -40.840599060058594,-74 0,-74z"></path></g></g><g style="display: block;" transform="matrix(-0.951853334903717,0.30655384063720703,-0.30655384063720703,-0.951853334903717,1232.75732421875,1914.5263671875)" opacity="1"><g opacity="1" transform="matrix(1,0,0,1,-474,171.48699951171875)"><path fill="rgb(204,236,195)" fill-opacity="1" d=" M0,-74 C40.840599060058594,-74 74,-40.840599060058594 74,0 C74,40.840599060058594 40.840599060058594,74 0,74 C-40.840599060058594,74 -74,40.840599060058594 -74,0 C-74,-40.840599060058594 -40.840599060058594,-74 0,-74z"></path><path fill="rgb(204,236,195)" fill-opacity="1" d=" M0,-74 C40.840599060058594,-74 74,-40.840599060058594 74,0 C74,40.840599060058594 40.840599060058594,74 0,74 C-40.840599060058594,74 -74,40.840599060058594 -74,0 C-74,-40.840599060058594 -40.840599060058594,-74 0,-74z"></path></g></g><g transform="matrix(-0.9687364101409912,0.24809224903583527,-0.24809224903583527,-0.9687364101409912,497.73333740234375,1992.584716796875)" opacity="1" style="display: none;"><g opacity="1" transform="matrix(1,0,0,1,-474,171.48699951171875)"><path fill="rgb(204,236,195)" fill-opacity="1" d=" M0,-74 C40.840599060058594,-74 74,-40.840599060058594 74,0 C74,40.840599060058594 40.840599060058594,74 0,74 C-40.840599060058594,74 -74,40.840599060058594 -74,0 C-74,-40.840599060058594 -40.840599060058594,-74 0,-74z"></path><path fill="rgb(204,236,195)" fill-opacity="1" d=" M0,-74 C40.840599060058594,-74 74,-40.840599060058594 74,0 C74,40.840599060058594 40.840599060058594,74 0,74 C-40.840599060058594,74 -74,40.840599060058594 -74,0 C-74,-40.840599060058594 -40.840599060058594,-74 0,-74z"></path></g></g><g style="display: block;" transform="matrix(-0.7399872541427612,0.6726208925247192,-0.6726208925247192,-0.7399872541427612,1409.275146484375,1931.388427734375)" opacity="1"><g opacity="1" transform="matrix(1,0,0,1,-474,171.48699951171875)"><path fill="rgb(204,236,195)" fill-opacity="1" d=" M0,-74 C40.840599060058594,-74 74,-40.840599060058594 74,0 C74,40.840599060058594 40.840599060058594,74 0,74 C-40.840599060058594,74 -74,40.840599060058594 -74,0 C-74,-40.840599060058594 -40.840599060058594,-74 0,-74z"></path><path fill="rgb(204,236,195)" fill-opacity="1" d=" M0,-74 C40.840599060058594,-74 74,-40.840599060058594 74,0 C74,40.840599060058594 40.840599060058594,74 0,74 C-40.840599060058594,74 -74,40.840599060058594 -74,0 C-74,-40.840599060058594 -40.840599060058594,-74 0,-74z"></path></g></g><g style="display: block;" transform="matrix(-0.004235643893480301,0.2818666994571686,-0.2818666994571686,-0.004235643893480301,1465.513916015625,1538.1865234375)" opacity="1"><g opacity="1" transform="matrix(1,0,0,1,-474,171.48699951171875)"><path fill="rgb(204,236,195)" fill-opacity="1" d=" M0,-74 C40.840599060058594,-74 74,-40.840599060058594 74,0 C74,40.840599060058594 40.840599060058594,74 0,74 C-40.840599060058594,74 -74,40.840599060058594 -74,0 C-74,-40.840599060058594 -40.840599060058594,-74 0,-74z"></path><path fill="rgb(204,236,195)" fill-opacity="1" d=" M0,-74 C40.840599060058594,-74 74,-40.840599060058594 74,0 C74,40.840599060058594 40.840599060058594,74 0,74 C-40.840599060058594,74 -74,40.840599060058594 -74,0 C-74,-40.840599060058594 -40.840599060058594,-74 0,-74z"></path></g></g><g style="display: none;" transform="matrix(-0.2567936182022095,0.11629559099674225,-0.11629559099674225,-0.2567936182022095,1603.96337890625,1596.623779296875)" opacity="1"><g opacity="1" transform="matrix(1,0,0,1,-474,171.48699951171875)"><path fill="rgb(204,236,195)" fill-opacity="1" d=" M0,-74 C40.840599060058594,-74 74,-40.840599060058594 74,0 C74,40.840599060058594 40.840599060058594,74 0,74 C-40.840599060058594,74 -74,40.840599060058594 -74,0 C-74,-40.840599060058594 -40.840599060058594,-74 0,-74z"></path><path fill="rgb(204,236,195)" fill-opacity="1" d=" M0,-74 C40.840599060058594,-74 74,-40.840599060058594 74,0 C74,40.840599060058594 40.840599060058594,74 0,74 C-40.840599060058594,74 -74,40.840599060058594 -74,0 C-74,-40.840599060058594 -40.840599060058594,-74 0,-74z"></path></g></g><g style="display: block;" transform="matrix(-0.061419736593961716,-0.2751274108886719,0.2751274108886719,-0.061419736593961716,1267.4207763671875,1254.8062744140625)" opacity="1"><g opacity="1" transform="matrix(1,0,0,1,-474,171.48699951171875)"><path fill="rgb(204,80,255)" fill-opacity="1" d=" M0,-74 C40.840599060058594,-74 74,-40.840599060058594 74,0 C74,40.840599060058594 40.840599060058594,74 0,74 C-40.840599060058594,74 -74,40.840599060058594 -74,0 C-74,-40.840599060058594 -40.840599060058594,-74 0,-74z"></path><path fill="rgb(204,80,255)" fill-opacity="1" d=" M0,-74 C40.840599060058594,-74 74,-40.840599060058594 74,0 C74,40.840599060058594 40.840599060058594,74 0,74 C-40.840599060058594,74 -74,40.840599060058594 -74,0 C-74,-40.840599060058594 -40.840599060058594,-74 0,-74z"></path></g></g><g style="display: none;" transform="matrix(-0.1350080370903015,-0.24746808409690857,0.24746808409690857,-0.1350080370903015,1243.4111328125,1861.7435302734375)" opacity="1"><g opacity="1" transform="matrix(1,0,0,1,-474,171.48699951171875)"><path fill="rgb(204,80,255)" fill-opacity="1" d=" M0,-74 C40.840599060058594,-74 74,-40.840599060058594 74,0 C74,40.840599060058594 40.840599060058594,74 0,74 C-40.840599060058594,74 -74,40.840599060058594 -74,0 C-74,-40.840599060058594 -40.840599060058594,-74 0,-74z"></path><path fill="rgb(204,80,255)" fill-opacity="1" d=" M0,-74 C40.840599060058594,-74 74,-40.840599060058594 74,0 C74,40.840599060058594 40.840599060058594,74 0,74 C-40.840599060058594,74 -74,40.840599060058594 -74,0 C-74,-40.840599060058594 -40.840599060058594,-74 0,-74z"></path></g></g><g style="display: none;" transform="matrix(-0.0064954147674143314,-0.2818251848220825,0.2818251848220825,-0.0064954147674143314,814.5940551757812,1635.1297607421875)" opacity="1"><g opacity="1" transform="matrix(1,0,0,1,-474,171.48699951171875)"><path fill="rgb(204,236,195)" fill-opacity="1" d=" M0,-74 C40.840599060058594,-74 74,-40.840599060058594 74,0 C74,40.840599060058594 40.840599060058594,74 0,74 C-40.840599060058594,74 -74,40.840599060058594 -74,0 C-74,-40.840599060058594 -40.840599060058594,-74 0,-74z"></path><path fill="rgb(204,236,195)" fill-opacity="1" d=" M0,-74 C40.840599060058594,-74 74,-40.840599060058594 74,0 C74,40.840599060058594 40.840599060058594,74 0,74 C-40.840599060058594,74 -74,40.840599060058594 -74,0 C-74,-40.840599060058594 -40.840599060058594,-74 0,-74z"></path></g></g><g style="display: block;" transform="matrix(-0.11618413031101227,-0.25684404373168945,0.25684404373168945,-0.11618413031101227,773.6823120117188,1645.6168212890625)" opacity="1"><g opacity="1" transform="matrix(1,0,0,1,-474,171.48699951171875)"><path fill="rgb(204,236,195)" fill-opacity="1" d=" M0,-74 C40.840599060058594,-74 74,-40.840599060058594 74,0 C74,40.840599060058594 40.840599060058594,74 0,74 C-40.840599060058594,74 -74,40.840599060058594 -74,0 C-74,-40.840599060058594 -40.840599060058594,-74 0,-74z"></path><path fill="rgb(204,236,195)" fill-opacity="1" d=" M0,-74 C40.840599060058594,-74 74,-40.840599060058594 74,0 C74,40.840599060058594 40.840599060058594,74 0,74 C-40.840599060058594,74 -74,40.840599060058594 -74,0 C-74,-40.840599060058594 -40.840599060058594,-74 0,-74z"></path></g></g><g style="display: block;" transform="matrix(0.23213189840316772,-0.1599399596452713,0.1599399596452713,0.23213189840316772,1377.9345703125,1318.22607421875)" opacity="1"><path stroke-linecap="butt" stroke-linejoin="miter" fill-opacity="0" stroke-miterlimit="4" stroke="rgb(9,9,9)" stroke-opacity="1" stroke-width="14" d=" M-474,97.49 C-433.16,97.49 -400,130.65 -400,171.49 C-400,212.33 -433.16,245.49 -474,245.49 C-514.84,245.49 -548,212.33 -548,171.49 C-548,130.65 -514.84,97.49 -474,97.49z"></path><g opacity="1" transform="matrix(1,0,0,1,-474,171.48699951171875)"></g></g><g style="display: none;" transform="matrix(-0.2096089869737625,-0.18849852681159973,0.18849852681159973,-0.2096089869737625,1574.134033203125,1447.1317138671875)" opacity="1"><path stroke-linecap="butt" stroke-linejoin="miter" fill-opacity="0" stroke-miterlimit="4" stroke="rgb(9,9,9)" stroke-opacity="1" stroke-width="14" d=" M-474,97.49 C-433.16,97.49 -400,130.65 -400,171.49 C-400,212.33 -433.16,245.49 -474,245.49 C-514.84,245.49 -548,212.33 -548,171.49 C-548,130.65 -514.84,97.49 -474,97.49z"></path><g opacity="1" transform="matrix(1,0,0,1,-474,171.48699951171875)"></g></g><g style="display: block;" transform="matrix(0.9980344176292419,-0.0626685619354248,0.0626685619354248,0.9980344176292419,2096.572265625,1035.586669921875)" opacity="1"><g opacity="1" transform="matrix(1,0,0,1,-481.5,171.48699951171875)"><path stroke-linecap="butt" stroke-linejoin="round" fill-opacity="0" stroke="rgb(204,236,195)" stroke-opacity="1" stroke-width="41" d=" M0,-54 C29.802600860595703,-54 54,-29.802600860595703 54,0 C54,29.802600860595703 29.802600860595703,54 0,54 C-29.802600860595703,54 -54,29.802600860595703 -54,0 C-54,-29.802600860595703 -29.802600860595703,-54 0,-54z"></path></g></g><g style="display: none;" transform="matrix(-0.7852737307548523,0.6191487908363342,-0.6191487908363342,-0.7852737307548523,1378.662841796875,1913.806884765625)" opacity="1"><g opacity="1" transform="matrix(1,0,0,1,-481.5,171.48699951171875)"><path stroke-linecap="butt" stroke-linejoin="round" fill-opacity="0" stroke="rgb(204,236,195)" stroke-opacity="1" stroke-width="41" d=" M0,-54 C29.802600860595703,-54 54,-29.802600860595703 54,0 C54,29.802600860595703 29.802600860595703,54 0,54 C-29.802600860595703,54 -54,29.802600860595703 -54,0 C-54,-29.802600860595703 -29.802600860595703,-54 0,-54z"></path></g></g><g transform="matrix(0.8700000047683716,0,0,0.8700000047683716,1151.347412109375,1309.2191162109375)" opacity="1" style="display: block;"><g opacity="1" transform="matrix(1.8793699741363525,0,0,1.8793699741363525,563.52099609375,265.0639953613281)"><path fill="rgb(255,255,255)" fill-opacity="1" d=" M0,-45.2400016784668 C24.96795654296875,-45.2400016784668 45.2400016784668,-24.96795654296875 45.2400016784668,0 C45.2400016784668,24.96795654296875 24.96795654296875,45.2400016784668 0,45.2400016784668 C-24.96795654296875,45.2400016784668 -45.2400016784668,24.96795654296875 -45.2400016784668,0 C-45.2400016784668,-24.96795654296875 -24.96795654296875,-45.2400016784668 0,-45.2400016784668z"></path></g></g><g transform="matrix(1,0,0,1,1075,1241)" opacity="1" style="display: block;"><g opacity="1" transform="matrix(1,0,0,1,568.2490234375,225.5260009765625)"><path fill="rgb(255,255,255)" fill-opacity="1" d=" M88.2490005493164,-73.52649688720703 C88.2490005493164,-73.52649688720703 88.2490005493164,73.52649688720703 88.2490005493164,73.52649688720703 C88.2490005493164,73.52649688720703 -88.2490005493164,73.52649688720703 -88.2490005493164,73.52649688720703 C-88.2490005493164,73.52649688720703 -88.2490005493164,-73.52649688720703 -88.2490005493164,-73.52649688720703 C-88.2490005493164,-73.52649688720703 88.2490005493164,-73.52649688720703 88.2490005493164,-73.52649688720703z"></path></g></g><g transform="matrix(0,1,-1,0,1564.9959716796875,1390.489990234375)" opacity="1" style="display: block;"><g opacity="1" transform="matrix(1,0,0,1,37.25,74.25)"><path fill="rgb(204,236,195)" fill-opacity="1" d=" M37,74 C37,74 37,-74 37,-74 C-3.816999912261963,-74 -37,-40.81700134277344 -37,0 C-37,40.81700134277344 -3.816999912261963,74 37,74z"></path></g></g><g transform="matrix(0,-1,1,0,1416.2459716796875,1538.239990234375)" opacity="1" style="display: block;"><g opacity="1" transform="matrix(1,0,0,1,37.25,74.25)"><path fill="rgb(204,236,195)" fill-opacity="1" d=" M37,74 C37,74 37,-74 37,-74 C-3.816999912261963,-74 -37,-40.81700134277344 -37,0 C-37,40.81700134277344 -3.816999912261963,74 37,74z"></path></g></g><g transform="matrix(1,0,0,1,1969.7459716796875,1442.718017578125)" opacity="1" style="display: block;"><path stroke-linecap="butt" stroke-linejoin="miter" fill-opacity="0" stroke-miterlimit="4" stroke="rgb(9,9,9)" stroke-opacity="1" stroke-width="4" d=" M-474,97.49 C-433.16,97.49 -400,130.65 -400,171.49 C-400,212.33 -433.16,245.49 -474,245.49 C-514.84,245.49 -548,212.33 -548,171.49 C-548,130.65 -514.84,97.49 -474,97.49z"></path><g opacity="1" transform="matrix(1,0,0,1,-474,171.48699951171875)"></g></g><g transform="matrix(1,0,0,1,2114.745849609375,1367.718017578125)" opacity="1" style="display: block;"><g opacity="1" transform="matrix(1,0,0,1,-474,171.48699951171875)"><path fill="rgb(204,80,255)" fill-opacity="1" d=" M0,-74 C40.840599060058594,-74 74,-40.840599060058594 74,0 C74,40.840599060058594 40.840599060058594,74 0,74 C-40.840599060058594,74 -74,40.840599060058594 -74,0 C-74,-40.840599060058594 -40.840599060058594,-74 0,-74z"></path><path fill="rgb(204,80,255)" fill-opacity="1" d=" M0,-74 C40.840599060058594,-74 74,-40.840599060058594 74,0 C74,40.840599060058594 40.840599060058594,74 0,74 C-40.840599060058594,74 -74,40.840599060058594 -74,0 C-74,-40.840599060058594 -40.840599060058594,-74 0,-74z"></path></g></g><g transform="matrix(1,0,0,1,1817.7459716796875,1443.718017578125)" opacity="1" style="display: block;"><g opacity="1" transform="matrix(1,0,0,1,-474,171.48699951171875)"><path fill="rgb(204,236,195)" fill-opacity="1" d=" M0,-74 C40.840599060058594,-74 74,-40.840599060058594 74,0 C74,40.840599060058594 40.840599060058594,74 0,74 C-40.840599060058594,74 -74,40.840599060058594 -74,0 C-74,-40.840599060058594 -40.840599060058594,-74 0,-74z"></path><path fill="rgb(204,236,195)" fill-opacity="1" d=" M0,-74 C40.840599060058594,-74 74,-40.840599060058594 74,0 C74,40.840599060058594 40.840599060058594,74 0,74 C-40.840599060058594,74 -74,40.840599060058594 -74,0 C-74,-40.840599060058594 -40.840599060058594,-74 0,-74z"></path></g></g><g transform="matrix(1,0,0,1,1817.7459716796875,1443.718017578125)" opacity="1" style="display: block;"><g opacity="1" transform="matrix(1,0,0,1,-474,171.48699951171875)"><path fill="rgb(204,236,195)" fill-opacity="1" d=" M0,-74 C40.840599060058594,-74 74,-40.840599060058594 74,0 C74,40.840599060058594 40.840599060058594,74 0,74 C-40.840599060058594,74 -74,40.840599060058594 -74,0 C-74,-40.840599060058594 -40.840599060058594,-74 0,-74z"></path><path fill="rgb(204,236,195)" fill-opacity="1" d=" M0,-74 C40.840599060058594,-74 74,-40.840599060058594 74,0 C74,40.840599060058594 40.840599060058594,74 0,74 C-40.840599060058594,74 -74,40.840599060058594 -74,0 C-74,-40.840599060058594 -40.840599060058594,-74 0,-74z"></path></g></g><g transform="matrix(1,0,0,1,1666.7459716796875,1443.718017578125)" opacity="1" style="display: block;"><g opacity="1" transform="matrix(1,0,0,1,-474,171.48699951171875)"><path fill="rgb(204,80,255)" fill-opacity="1" d=" M0,-74 C40.840599060058594,-74 74,-40.840599060058594 74,0 C74,40.840599060058594 40.840599060058594,74 0,74 C-40.840599060058594,74 -74,40.840599060058594 -74,0 C-74,-40.840599060058594 -40.840599060058594,-74 0,-74z"></path><path fill="rgb(204,80,255)" fill-opacity="1" d=" M0,-74 C40.840599060058594,-74 74,-40.840599060058594 74,0 C74,40.840599060058594 40.840599060058594,74 0,74 C-40.840599060058594,74 -74,40.840599060058594 -74,0 C-74,-40.840599060058594 -40.840599060058594,-74 0,-74z"></path></g></g><g transform="matrix(1,0,0,1,2113.89306640625,1219.572998046875)" opacity="1" style="display: block;"><g opacity="1" transform="matrix(1,0,0,1,-474,171.48699951171875)"><path fill="rgb(204,236,195)" fill-opacity="1" d=" M0,-74 C40.840599060058594,-74 74,-40.840599060058594 74,0 C74,40.840599060058594 40.840599060058594,74 0,74 C-40.840599060058594,74 -74,40.840599060058594 -74,0 C-74,-40.840599060058594 -40.840599060058594,-74 0,-74z"></path></g></g><g transform="matrix(1.2003599405288696,0,0,1.2003599405288696,1044,1129)" opacity="1" style="display: block;"><g opacity="1" transform="matrix(0,0.9033899903297424,-0.9033899903297424,0,177.37600708007812,312.0429992675781)"><path stroke-linecap="butt" stroke-linejoin="miter" fill-opacity="0" stroke-miterlimit="4" stroke="rgb(204,236,195)" stroke-opacity="1" stroke-width="127" d=" M0,-487.12701416015625 C268.84539794921875,-487.12701416015625 487.12701416015625,-268.84539794921875 487.12701416015625,0 C487.12701416015625,268.84539794921875 268.84539794921875,487.12701416015625 0,487.12701416015625 C0,487.12701416015625 0,487.12701416015625 0,487.12701416015625"></path></g></g><g transform="matrix(0.7737100124359131,0,0,0.7737100124359131,902.52880859375,1461.255859375)" opacity="1" style="display: block;"><g opacity="1" transform="matrix(1.1759099960327148,0,0,1.1759099960327148,238.75900268554688,239.76300048828125)"><path fill="rgb(204,236,195)" fill-opacity="1" d=" M0,-37.58100128173828 C20.740955352783203,-37.58100128173828 37.58100128173828,-20.740955352783203 37.58100128173828,0 C37.58100128173828,20.740955352783203 20.740955352783203,37.58100128173828 0,37.58100128173828 C-20.740955352783203,37.58100128173828 -37.58100128173828,20.740955352783203 -37.58100128173828,0 C-37.58100128173828,-20.740955352783203 -20.740955352783203,-37.58100128173828 0,-37.58100128173828z"></path></g></g></g></svg>