<svg xmlns="http://www.w3.org/2000/svg" xmlns:xlink="http://www.w3.org/1999/xlink" viewBox="0 0 800 600" width="800" height="600" preserveAspectRatio="xMidYMid meet" style="width: 100%; height: 100%; transform: translate3d(0px, 0px, 0px); content-visibility: visible;"><defs><clipPath id="__lottie_element_2"><rect width="800" height="600" x="0" y="0"></rect></clipPath><symbol id="__lottie_element_6"><g><g transform="matrix(1,0,0,1,400,300)" opacity="1" style="display: block;"><g opacity="1" transform="matrix(1,0,0,1,0,0)"><path fill="rgb(204,79,255)" fill-opacity="1" d=" M12,-316 C12,-316 -432,84 -432,84 C-432,84 -48,284 -48,284 C-48,284 412,-108 412,-108 C412,-108 12,-316 12,-316z"></path></g></g></g></symbol><mask id="__lottie_element_6_1" mask-type="alpha"><use xlink:href="#__lottie_element_6"></use></mask></defs><g clip-path="url(#__lottie_element_2)"><g mask="url(#__lottie_element_6_1)" style="display: block;"><g transform="matrix(1,0,0,1,-108.24189758300781,242.00497436523438)" opacity="1"><g opacity="1" transform="matrix(1,0,0,1,-2,-138.66685485839844)"><g opacity="1" transform="matrix(1,0,0,1,557,-541)"><g opacity="1" transform="matrix(1,0,0,1,288,276)"><path fill="rgb(204,236,195)" fill-opacity="1" d=" M-167.96499633789062,-6.493000030517578 C-167.96499633789062,-6.493000030517578 -277.9219970703125,48.917999267578125 -277.9219970703125,48.917999267578125 C-277.9219970703125,48.917999267578125 -279.65399169921875,100.86599731445312 -279.65399169921875,100.86599731445312 C-279.65399169921875,100.86599731445312 -56.277000427246094,216.01699829101562 -56.277000427246094,216.01699829101562 C-56.277000427246094,216.01699829101562 58.00899887084961,163.2030029296875 58.00899887084961,163.2030029296875 C58.00899887084961,163.2030029296875 55.4109992980957,108.65799713134766 55.4109992980957,108.65799713134766 C55.4109992980957,108.65799713134766 -167.96499633789062,-6.493000030517578 -167.96499633789062,-6.493000030517578z"></path></g><g opacity="1" transform="matrix(1,0,0,1,174.13699340820312,353.4419860839844)"><path fill="rgb(204,236,195)" fill-opacity="1" d=" M-168.76800537109375,-28.47599983215332 C-164.43600463867188,-26.183000564575195 -160.10400390625,-23.888999938964844 -155.77200317382812,-21.59600067138672 C-144.66099548339844,-15.71399974822998 -133.5489959716797,-9.833000183105469 -122.43699645996094,-3.9519999027252197 C-107.37200164794922,4.02400016784668 -92.30699920654297,11.99899959564209 -77.24099731445312,19.972999572753906 C-77.24099731445312,19.972999572753906 -28.85099983215332,45.58700180053711 -28.85099983215332,45.58700180053711 C-14.343000411987305,53.268001556396484 0.16500000655651093,60.948001861572266 14.67300033569336,68.62799835205078 C24.66900062561035,73.91899871826172 34.665000915527344,79.21099853515625 44.6609992980957,84.50199890136719 C47.073001861572266,85.77799987792969 49.48400115966797,87.05400085449219 51.895999908447266,88.33200073242188 C52.31700134277344,88.55400085449219 52.73400115966797,88.79499816894531 53.16299819946289,89.00199890136719 C55.09199905395508,89.93299865722656 56.71699905395508,89.49700164794922 58.459999084472656,88.6709976196289 C68.41799926757812,83.95099639892578 78.32499694824219,79.12000274658203 88.25700378417969,74.34300231933594 C104.3949966430664,66.58499908447266 120.53299713134766,58.82600021362305 136.6699981689453,51.066001892089844 C147.5279998779297,45.845001220703125 158.38800048828125,40.625999450683594 169.24600219726562,35.40399932861328 C169.24600219726562,35.40399932861328 170.88099670410156,34.61800003051758 170.88099670410156,34.61800003051758 C173.86099243164062,33.183998107910156 173.73399353027344,28.368999481201172 170.88099670410156,26.898000717163086 C166.58099365234375,24.68199920654297 162.27999877929688,22.465999603271484 157.9810028076172,20.250999450683594 C146.93099975585938,14.555999755859375 135.8800048828125,8.861000061035156 124.83000183105469,3.1670000553131104 C109.86900329589844,-4.544000148773193 94.90699768066406,-12.255000114440918 79.94599914550781,-19.965999603271484 C63.71699905395508,-28.329999923706055 47.487998962402344,-36.694000244140625 31.259000778198242,-45.05699920654297 C16.591999053955078,-52.617000579833984 1.9240000247955322,-60.17399978637695 -12.744000434875488,-67.73400115966797 C-23.076000213623047,-73.05799865722656 -33.40800094604492,-78.38400268554688 -43.7400016784668,-83.70800018310547 C-46.40700149536133,-85.08300018310547 -49.073001861572266,-86.45700073242188 -51.7400016784668,-87.83100128173828 C-53.99399948120117,-88.99299621582031 -55.71699905395508,-89.93399810791016 -58.43899917602539,-88.68499755859375 C-67.68499755859375,-84.44300079345703 -76.81999969482422,-79.94000244140625 -86.00599670410156,-75.56999969482422 C-86.00599670410156,-75.56999969482422 -134.1479949951172,-52.665000915527344 -134.1479949951172,-52.665000915527344 C-134.1479949951172,-52.665000915527344 -167.093994140625,-36.992000579833984 -167.093994140625,-36.992000579833984 C-167.65199279785156,-36.72700119018555 -168.2100067138672,-36.459999084472656 -168.76800537109375,-36.19499969482422 C-170.947998046875,-35.15800094604492 -171.51699829101562,-32.0369987487793 -170.3719940185547,-30.07900047302246 C-169.06700134277344,-27.847999572753906 -166.44500732421875,-27.434999465942383 -164.25599670410156,-28.47599983215332 C-151.76699829101562,-34.417999267578125 -139.2760009765625,-40.36000061035156 -126.78600311279297,-46.301998138427734 C-106.96199798583984,-55.733001708984375 -87.13999938964844,-65.16400146484375 -67.31600189208984,-74.59500122070312 C-62.76100158691406,-76.76200103759766 -58.20500183105469,-78.92900085449219 -53.650001525878906,-81.09600067138672 C-53.650001525878906,-81.09600067138672 -58.16299819946289,-81.09600067138672 -58.16299819946289,-81.09600067138672 C-50.68199920654297,-77.24099731445312 -43.20100021362305,-73.38500213623047 -35.71900177001953,-69.52999877929688 C-17.89299964904785,-60.34299850463867 -0.06700000166893005,-51.15700149536133 17.759000778198242,-41.96900177001953 C17.759000778198242,-41.96900177001953 82.80999755859375,-8.444999694824219 82.80999755859375,-8.444999694824219 C101.44000244140625,1.156000018119812 120.06999969482422,10.756999969482422 138.6999969482422,20.358999252319336 C144.87899780273438,23.542999267578125 151.0570068359375,26.726999282836914 157.23500061035156,29.910999298095703 C160.1269989013672,31.400999069213867 163.0019989013672,33.15599822998047 165.99899291992188,34.426998138427734 C166.12600708007812,34.48099899291992 166.24600219726562,34.55400085449219 166.3679962158203,34.61800003051758 C166.3679962158203,34.61800003051758 166.3679962158203,26.898000717163086 166.3679962158203,26.898000717163086 C153.5780029296875,33.047000885009766 140.78799438476562,39.196998596191406 127.99800109863281,45.34700012207031 C107.75599670410156,55.07899856567383 87.51499938964844,64.81099700927734 67.27400207519531,74.54399871826172 C62.58599853515625,76.7969970703125 57.89699935913086,79.052001953125 53.20899963378906,81.30599975585938 C53.20899963378906,81.30599975585938 57.72100067138672,81.30599975585938 57.72100067138672,81.30599975585938 C50.32699966430664,77.39199829101562 42.93299865722656,73.47799682617188 35.53799819946289,69.56400299072266 C17.91900062561035,60.237998962402344 0.30000001192092896,50.9109992980957 -17.31800079345703,41.584999084472656 C-38.75199890136719,30.23900032043457 -60.18600082397461,18.892000198364258 -81.62100219726562,7.546000003814697 C-100.03900146484375,-2.2039999961853027 -118.45800018310547,-11.95300006866455 -136.87600708007812,-21.702999114990234 C-145.8719940185547,-26.464000701904297 -154.7899932861328,-31.430999755859375 -163.88699340820312,-36 C-164.01100158691406,-36.0629997253418 -164.13400268554688,-36.12900161743164 -164.25599670410156,-36.19499969482422 C-169.33799743652344,-38.8849983215332 -173.86000061035156,-31.17099952697754 -168.76800537109375,-28.47599983215332z"></path></g><g opacity="1" transform="matrix(1,0,0,1,117.43299865722656,406.9119873046875)"><path fill="rgb(204,236,195)" fill-opacity="1" d=" M-112.06400299072266,-25.74799919128418 C-104.66200256347656,-21.923999786376953 -97.26000213623047,-18.099000930786133 -89.85800170898438,-14.27400016784668 C-72.15399932861328,-5.127999782562256 -54.44900131225586,4.019000053405762 -36.74599838256836,13.164999961853027 C-15.274999618530273,24.257999420166016 6.195000171661377,35.35100173950195 27.665000915527344,46.44200134277344 C27.665000915527344,46.44200134277344 83.13400268554688,75.10099792480469 83.13400268554688,75.10099792480469 C92.10099792480469,79.73300170898438 100.99700164794922,84.5459976196289 110.0510025024414,89.00800323486328 C110.1760025024414,89.06900024414062 110.29900360107422,89.13600158691406 110.4229965209961,89.19999694824219 C113.36499786376953,90.72000122070312 117.18399810791016,88.87100219726562 117.1500015258789,85.33999633789062 C117.0009994506836,69.83599853515625 116.85099792480469,54.33300018310547 116.7020034790039,38.82899856567383 C116.68099975585938,36.62200164794922 116.66000366210938,34.415000915527344 116.63899993896484,32.20899963378906 C116.6240005493164,30.68199920654297 115.80899810791016,29.082000732421875 114.42400360107422,28.349000930786133 C107.02999877929688,24.434999465942383 99.63600158691406,20.520999908447266 92.24099731445312,16.606000900268555 C74.62200164794922,7.28000020980835 57.00299835205078,-2.046999931335449 39.3849983215332,-11.373000144958496 C17.951000213623047,-22.7189998626709 -3.4830000400543213,-34.064998626708984 -24.917999267578125,-45.4109992980957 C-43.33599853515625,-55.1609992980957 -61.755001068115234,-64.91000366210938 -80.1729965209961,-74.66000366210938 C-89.16899871826172,-79.4219970703125 -98.08699798583984,-84.38899993896484 -107.18399810791016,-88.95800018310547 C-107.30799865722656,-89.0199966430664 -107.43000030517578,-89.08799743652344 -107.552001953125,-89.15299987792969 C-110.51200103759766,-90.72000122070312 -114.27899932861328,-88.79000091552734 -114.27899932861328,-85.29299926757812 C-114.27899932861328,-85.29299926757812 -114.27899932861328,-36.46500015258789 -114.27899932861328,-36.46500015258789 C-114.27899932861328,-36.46500015258789 -114.27899932861328,-29.60700035095215 -114.27899932861328,-29.60700035095215 C-114.27899932861328,-23.854000091552734 -105.33699798583984,-23.84600067138672 -105.33699798583984,-29.60700035095215 C-105.33699798583984,-29.60700035095215 -105.33699798583984,-78.43599700927734 -105.33699798583984,-78.43599700927734 C-105.33699798583984,-78.43599700927734 -105.33699798583984,-85.29299926757812 -105.33699798583984,-85.29299926757812 C-107.58000183105469,-84.00700378417969 -109.8219985961914,-82.72000122070312 -112.06400299072266,-81.43399810791016 C-104.66899871826172,-77.51899719238281 -97.2760009765625,-73.6050033569336 -89.88200378417969,-69.69100189208984 C-72.26300048828125,-60.36399841308594 -54.64400100708008,-51.03799819946289 -37.025001525878906,-41.71200180053711 C-15.590999603271484,-30.365999221801758 5.8429999351501465,-19.018999099731445 27.277000427246094,-7.673999786376953 C45.69499969482422,2.0759999752044678 64.11399841308594,11.826000213623047 82.53299713134766,21.575000762939453 C88.64299774169922,24.81100082397461 94.75499725341797,28.045000076293945 100.86599731445312,31.27899932861328 C103.72599792480469,32.792999267578125 106.56999969482422,34.5890007019043 109.54299926757812,35.87300109863281 C109.66899871826172,35.928001403808594 109.79100036621094,36.00400161743164 109.91300201416016,36.06800079345703 C109.17500305175781,34.78200149536133 108.43699645996094,33.494998931884766 107.6989974975586,32.20899963378906 C107.8479995727539,47.71200180053711 107.99600219726562,63.215999603271484 108.1449966430664,78.72000122070312 C108.16600036621094,80.9260025024414 108.18699645996094,83.13300323486328 108.20800018310547,85.33999633789062 C110.45099639892578,84.05400085449219 112.69400024414062,82.76699829101562 114.93599700927734,81.48100280761719 C107.53399658203125,77.65499877929688 100.12999725341797,73.83100128173828 92.72799682617188,70.00700378417969 C75.02400207519531,60.86000061035156 57.321998596191406,51.7140007019043 39.61800003051758,42.56700134277344 C18.14699935913086,31.475000381469727 -3.322000026702881,20.381999969482422 -24.792999267578125,9.289999961853027 C-24.792999267578125,9.289999961853027 -80.26300048828125,-19.368000030517578 -80.26300048828125,-19.368000030517578 C-89.2300033569336,-24.000999450683594 -98.12699890136719,-28.812999725341797 -107.18099975585938,-33.275001525878906 C-107.30599975585938,-33.33700180053711 -107.42900085449219,-33.40299987792969 -107.552001953125,-33.46799850463867 C-112.65599822998047,-36.104000091552734 -117.18299865722656,-28.39299964904785 -112.06400299072266,-25.74799919128418z"></path></g><g opacity="1" transform="matrix(1,0,0,1,286.1709899902344,438.7179870605469)"><path fill="rgb(9,9,9)" fill-opacity="1" d=" M-53.801998138427734,57.39500045776367 C-41.125999450683594,51.41600036621094 -28.448999404907227,45.4370002746582 -15.77299976348877,39.45800018310547 C4.443999767303467,29.922000885009766 24.660999298095703,20.386999130249023 44.87799835205078,10.85200023651123 C44.87799835205078,10.85200023651123 58.84700012207031,4.263000011444092 58.84700012207031,4.263000011444092 C60.23500061035156,3.6089999675750732 61.06100082397461,1.8700000047683716 61.06100082397461,0.40400001406669617 C61.06100082397461,0.40400001406669617 61.06100082397461,-47.18899917602539 61.06100082397461,-47.18899917602539 C61.06100082397461,-47.18899917602539 61.06100082397461,-54.005001068115234 61.06100082397461,-54.005001068115234 C61.06100082397461,-57.60100173950195 57.316001892089844,-59.29800033569336 54.33399963378906,-57.8650016784668 C41.54399871826172,-51.71500015258789 28.753999710083008,-45.566001892089844 15.96399974822998,-39.41600036621094 C-4.2779998779296875,-29.68400001525879 -24.518999099731445,-19.95199966430664 -44.7599983215332,-10.218999862670898 C-49.448001861572266,-7.965000152587891 -54.137001037597656,-5.710000038146973 -58.82500076293945,-3.4570000171661377 C-60.20100021362305,-2.7939999103546143 -61.05400085449219,-1.0679999589920044 -61.040000915527344,0.40400001406669617 C-60.89099884033203,15.906999588012695 -60.74100112915039,31.410999298095703 -60.59199905395508,46.915000915527344 C-60.57099914550781,49.12099838256836 -60.54999923706055,51.327999114990234 -60.52899932861328,53.53499984741211 C-60.472999572753906,59.28499984741211 -51.53200149536133,59.29899978637695 -51.5880012512207,53.53499984741211 C-51.73699951171875,38.03099822998047 -51.88600158691406,22.527999877929688 -52.03499984741211,7.02400016784668 C-52.055999755859375,4.816999912261963 -52.07899856567383,2.609999895095825 -52.099998474121094,0.40400001406669617 C-52.8380012512207,1.690000057220459 -53.57500076293945,2.9769999980926514 -54.3129997253418,4.263000011444092 C-41.52299880981445,-1.8860000371932983 -28.732999801635742,-8.03600025177002 -15.942000389099121,-14.185999870300293 C4.298999786376953,-23.917999267578125 24.538999557495117,-33.650001525878906 44.779998779296875,-43.38199996948242 C49.46900177001953,-45.637001037597656 54.15800094604492,-47.89099884033203 58.84700012207031,-50.14500045776367 C56.60499954223633,-51.43199920654297 54.362998962402344,-52.71799850463867 52.119998931884766,-54.005001068115234 C52.119998931884766,-54.005001068115234 52.119998931884766,-6.413000106811523 52.119998931884766,-6.413000106811523 C52.119998931884766,-6.413000106811523 52.119998931884766,0.40400001406669617 52.119998931884766,0.40400001406669617 C52.85900115966797,-0.8830000162124634 53.59600067138672,-2.1689999103546143 54.33399963378906,-3.4570000171661377 C41.65700149536133,2.5230000019073486 28.981000900268555,8.50100040435791 16.30500030517578,14.479999542236328 C-3.9119999408721924,24.016000747680664 -24.128999710083008,33.55099868774414 -44.345001220703125,43.08599853515625 C-44.345001220703125,43.08599853515625 -58.31399917602539,49.67499923706055 -58.31399917602539,49.67499923706055 C-60.49800109863281,50.70500183105469 -61.060001373291016,53.8380012512207 -59.917999267578125,55.79100036621094 C-58.61000061035156,58.027000427246094 -55.99300003051758,58.428001403808594 -53.801998138427734,57.39500045776367z"></path></g><g opacity="1" transform="matrix(1,0,0,1,-274.1400146484375,262.7619934082031)"><path fill="rgb(9,9,9)" fill-opacity="1" d=" M617,176 C617,176 506,225 506,225 C506,225 504,175 504,175 C504,175 616,122 616,122 C616,122 617,176 617,176z"></path></g></g></g><g opacity="1" transform="matrix(1,0,0,1,415.0000305175781,-409)"><g opacity="1" transform="matrix(1,0,0,1,286,274)"><path fill="rgb(204,236,195)" fill-opacity="1" d=" M-167.96499633789062,-6.493000030517578 C-167.96499633789062,-6.493000030517578 -277.9219970703125,48.917999267578125 -277.9219970703125,48.917999267578125 C-277.9219970703125,48.917999267578125 -279.65399169921875,100.86599731445312 -279.65399169921875,100.86599731445312 C-279.65399169921875,100.86599731445312 -56.277000427246094,216.01699829101562 -56.277000427246094,216.01699829101562 C-56.277000427246094,216.01699829101562 58.00899887084961,163.2030029296875 58.00899887084961,163.2030029296875 C58.00899887084961,163.2030029296875 55.4109992980957,108.65799713134766 55.4109992980957,108.65799713134766 C55.4109992980957,108.65799713134766 -167.96499633789062,-6.493000030517578 -167.96499633789062,-6.493000030517578z"></path></g><g opacity="1" transform="matrix(1,0,0,1,174.13699340820312,353.4419860839844)"><path fill="rgb(204,236,195)" fill-opacity="1" d=" M-168.76800537109375,-28.47599983215332 C-164.43600463867188,-26.183000564575195 -160.10400390625,-23.888999938964844 -155.77200317382812,-21.59600067138672 C-144.66099548339844,-15.71399974822998 -133.5489959716797,-9.833000183105469 -122.43699645996094,-3.9519999027252197 C-107.37200164794922,4.02400016784668 -92.30699920654297,11.99899959564209 -77.24099731445312,19.972999572753906 C-77.24099731445312,19.972999572753906 -28.85099983215332,45.58700180053711 -28.85099983215332,45.58700180053711 C-14.343000411987305,53.268001556396484 0.16500000655651093,60.948001861572266 14.67300033569336,68.62799835205078 C24.66900062561035,73.91899871826172 34.665000915527344,79.21099853515625 44.6609992980957,84.50199890136719 C47.073001861572266,85.77799987792969 49.48400115966797,87.05400085449219 51.895999908447266,88.33200073242188 C52.31700134277344,88.55400085449219 52.73400115966797,88.79499816894531 53.16299819946289,89.00199890136719 C55.09199905395508,89.93299865722656 56.71699905395508,89.49700164794922 58.459999084472656,88.6709976196289 C68.41799926757812,83.95099639892578 78.32499694824219,79.12000274658203 88.25700378417969,74.34300231933594 C104.3949966430664,66.58499908447266 120.53299713134766,58.82600021362305 136.6699981689453,51.066001892089844 C147.5279998779297,45.845001220703125 158.38800048828125,40.625999450683594 169.24600219726562,35.40399932861328 C169.24600219726562,35.40399932861328 170.88099670410156,34.61800003051758 170.88099670410156,34.61800003051758 C173.86099243164062,33.183998107910156 173.73399353027344,28.368999481201172 170.88099670410156,26.898000717163086 C166.58099365234375,24.68199920654297 162.27999877929688,22.465999603271484 157.9810028076172,20.250999450683594 C146.93099975585938,14.555999755859375 135.8800048828125,8.861000061035156 124.83000183105469,3.1670000553131104 C109.86900329589844,-4.544000148773193 94.90699768066406,-12.255000114440918 79.94599914550781,-19.965999603271484 C63.71699905395508,-28.329999923706055 47.487998962402344,-36.694000244140625 31.259000778198242,-45.05699920654297 C16.591999053955078,-52.617000579833984 1.9240000247955322,-60.17399978637695 -12.744000434875488,-67.73400115966797 C-23.076000213623047,-73.05799865722656 -33.40800094604492,-78.38400268554688 -43.7400016784668,-83.70800018310547 C-46.40700149536133,-85.08300018310547 -49.073001861572266,-86.45700073242188 -51.7400016784668,-87.83100128173828 C-53.99399948120117,-88.99299621582031 -55.71699905395508,-89.93399810791016 -58.43899917602539,-88.68499755859375 C-67.68499755859375,-84.44300079345703 -76.81999969482422,-79.94000244140625 -86.00599670410156,-75.56999969482422 C-86.00599670410156,-75.56999969482422 -134.1479949951172,-52.665000915527344 -134.1479949951172,-52.665000915527344 C-134.1479949951172,-52.665000915527344 -167.093994140625,-36.992000579833984 -167.093994140625,-36.992000579833984 C-167.65199279785156,-36.72700119018555 -168.2100067138672,-36.459999084472656 -168.76800537109375,-36.19499969482422 C-170.947998046875,-35.15800094604492 -171.51699829101562,-32.0369987487793 -170.3719940185547,-30.07900047302246 C-169.06700134277344,-27.847999572753906 -166.44500732421875,-27.434999465942383 -164.25599670410156,-28.47599983215332 C-151.76699829101562,-34.417999267578125 -139.2760009765625,-40.36000061035156 -126.78600311279297,-46.301998138427734 C-106.96199798583984,-55.733001708984375 -87.13999938964844,-65.16400146484375 -67.31600189208984,-74.59500122070312 C-62.76100158691406,-76.76200103759766 -58.20500183105469,-78.92900085449219 -53.650001525878906,-81.09600067138672 C-53.650001525878906,-81.09600067138672 -58.16299819946289,-81.09600067138672 -58.16299819946289,-81.09600067138672 C-50.68199920654297,-77.24099731445312 -43.20100021362305,-73.38500213623047 -35.71900177001953,-69.52999877929688 C-17.89299964904785,-60.34299850463867 -0.06700000166893005,-51.15700149536133 17.759000778198242,-41.96900177001953 C17.759000778198242,-41.96900177001953 82.80999755859375,-8.444999694824219 82.80999755859375,-8.444999694824219 C101.44000244140625,1.156000018119812 120.06999969482422,10.756999969482422 138.6999969482422,20.358999252319336 C144.87899780273438,23.542999267578125 151.0570068359375,26.726999282836914 157.23500061035156,29.910999298095703 C160.1269989013672,31.400999069213867 163.0019989013672,33.15599822998047 165.99899291992188,34.426998138427734 C166.12600708007812,34.48099899291992 166.24600219726562,34.55400085449219 166.3679962158203,34.61800003051758 C166.3679962158203,34.61800003051758 166.3679962158203,26.898000717163086 166.3679962158203,26.898000717163086 C153.5780029296875,33.047000885009766 140.78799438476562,39.196998596191406 127.99800109863281,45.34700012207031 C107.75599670410156,55.07899856567383 87.51499938964844,64.81099700927734 67.27400207519531,74.54399871826172 C62.58599853515625,76.7969970703125 57.89699935913086,79.052001953125 53.20899963378906,81.30599975585938 C53.20899963378906,81.30599975585938 57.72100067138672,81.30599975585938 57.72100067138672,81.30599975585938 C50.32699966430664,77.39199829101562 42.93299865722656,73.47799682617188 35.53799819946289,69.56400299072266 C17.91900062561035,60.237998962402344 0.30000001192092896,50.9109992980957 -17.31800079345703,41.584999084472656 C-38.75199890136719,30.23900032043457 -60.18600082397461,18.892000198364258 -81.62100219726562,7.546000003814697 C-100.03900146484375,-2.2039999961853027 -118.45800018310547,-11.95300006866455 -136.87600708007812,-21.702999114990234 C-145.8719940185547,-26.464000701904297 -154.7899932861328,-31.430999755859375 -163.88699340820312,-36 C-164.01100158691406,-36.0629997253418 -164.13400268554688,-36.12900161743164 -164.25599670410156,-36.19499969482422 C-169.33799743652344,-38.8849983215332 -173.86000061035156,-31.17099952697754 -168.76800537109375,-28.47599983215332z"></path></g><g opacity="1" transform="matrix(1,0,0,1,117.43299865722656,406.3999938964844)"><path fill="rgb(204,236,195)" fill-opacity="1" d=" M-112.06400299072266,-25.74799919128418 C-104.66200256347656,-21.923999786376953 -97.26000213623047,-18.099000930786133 -89.85800170898438,-14.27400016784668 C-72.15399932861328,-5.127999782562256 -54.44900131225586,4.019000053405762 -36.74599838256836,13.164999961853027 C-15.274999618530273,24.257999420166016 6.195000171661377,35.35100173950195 27.665000915527344,46.44200134277344 C27.665000915527344,46.44200134277344 83.13400268554688,75.10099792480469 83.13400268554688,75.10099792480469 C92.10099792480469,79.73300170898438 100.99700164794922,84.5459976196289 110.0510025024414,89.00800323486328 C110.1760025024414,89.06900024414062 110.29900360107422,89.13600158691406 110.4229965209961,89.19999694824219 C113.36499786376953,90.72000122070312 117.18399810791016,88.87100219726562 117.1500015258789,85.33999633789062 C117.0009994506836,69.83599853515625 116.85099792480469,54.33300018310547 116.7020034790039,38.82899856567383 C116.68099975585938,36.62200164794922 116.66000366210938,34.415000915527344 116.63899993896484,32.20899963378906 C116.6240005493164,30.68199920654297 115.80899810791016,29.082000732421875 114.42400360107422,28.349000930786133 C107.02999877929688,24.434999465942383 99.63600158691406,20.520999908447266 92.24099731445312,16.606000900268555 C74.62200164794922,7.28000020980835 57.00299835205078,-2.046999931335449 39.3849983215332,-11.373000144958496 C17.951000213623047,-22.7189998626709 -3.4830000400543213,-34.064998626708984 -24.917999267578125,-45.4109992980957 C-43.33599853515625,-55.1609992980957 -61.755001068115234,-64.91000366210938 -80.1729965209961,-74.66000366210938 C-89.16899871826172,-79.4219970703125 -98.08699798583984,-84.38899993896484 -107.18399810791016,-88.95800018310547 C-107.30799865722656,-89.0199966430664 -107.43000030517578,-89.08799743652344 -107.552001953125,-89.15299987792969 C-110.51200103759766,-90.72000122070312 -114.27899932861328,-88.79000091552734 -114.27899932861328,-85.29299926757812 C-114.27899932861328,-85.29299926757812 -114.27899932861328,-36.46500015258789 -114.27899932861328,-36.46500015258789 C-114.27899932861328,-36.46500015258789 -114.27899932861328,-29.60700035095215 -114.27899932861328,-29.60700035095215 C-114.27899932861328,-23.854000091552734 -105.33699798583984,-23.84600067138672 -105.33699798583984,-29.60700035095215 C-105.33699798583984,-29.60700035095215 -105.33699798583984,-78.43599700927734 -105.33699798583984,-78.43599700927734 C-105.33699798583984,-78.43599700927734 -105.33699798583984,-85.29299926757812 -105.33699798583984,-85.29299926757812 C-107.58000183105469,-84.00700378417969 -109.8219985961914,-82.72000122070312 -112.06400299072266,-81.43399810791016 C-104.66899871826172,-77.51899719238281 -97.2760009765625,-73.6050033569336 -89.88200378417969,-69.69100189208984 C-72.26300048828125,-60.36399841308594 -54.64400100708008,-51.03799819946289 -37.025001525878906,-41.71200180053711 C-15.590999603271484,-30.365999221801758 5.8429999351501465,-19.018999099731445 27.277000427246094,-7.673999786376953 C45.69499969482422,2.0759999752044678 64.11399841308594,11.826000213623047 82.53299713134766,21.575000762939453 C88.64299774169922,24.81100082397461 94.75499725341797,28.045000076293945 100.86599731445312,31.27899932861328 C103.72599792480469,32.792999267578125 106.56999969482422,34.5890007019043 109.54299926757812,35.87300109863281 C109.66899871826172,35.928001403808594 109.79100036621094,36.00400161743164 109.91300201416016,36.06800079345703 C109.17500305175781,34.78200149536133 108.43699645996094,33.494998931884766 107.6989974975586,32.20899963378906 C107.8479995727539,47.71200180053711 107.99600219726562,63.215999603271484 108.1449966430664,78.72000122070312 C108.16600036621094,80.9260025024414 108.18699645996094,83.13300323486328 108.20800018310547,85.33999633789062 C110.45099639892578,84.05400085449219 112.69400024414062,82.76699829101562 114.93599700927734,81.48100280761719 C107.53399658203125,77.65499877929688 100.12999725341797,73.83100128173828 92.72799682617188,70.00700378417969 C75.02400207519531,60.86000061035156 57.321998596191406,51.7140007019043 39.61800003051758,42.56700134277344 C18.14699935913086,31.475000381469727 -3.322000026702881,20.381999969482422 -24.792999267578125,9.289999961853027 C-24.792999267578125,9.289999961853027 -80.26300048828125,-19.368000030517578 -80.26300048828125,-19.368000030517578 C-89.2300033569336,-24.000999450683594 -98.12699890136719,-28.812999725341797 -107.18099975585938,-33.275001525878906 C-107.30599975585938,-33.33700180053711 -107.42900085449219,-33.40299987792969 -107.552001953125,-33.46799850463867 C-112.65599822998047,-36.104000091552734 -117.18299865722656,-28.39299964904785 -112.06400299072266,-25.74799919128418z"></path></g><g opacity="1" transform="matrix(1,0,0,1,286.1709899902344,438.20599365234375)"><path fill="rgb(9,9,9)" fill-opacity="1" d=" M-53.801998138427734,57.39500045776367 C-41.125999450683594,51.41600036621094 -28.448999404907227,45.4370002746582 -15.77299976348877,39.45800018310547 C4.443999767303467,29.922000885009766 24.660999298095703,20.386999130249023 44.87799835205078,10.85200023651123 C44.87799835205078,10.85200023651123 58.84700012207031,4.263000011444092 58.84700012207031,4.263000011444092 C60.23500061035156,3.6089999675750732 61.06100082397461,1.8700000047683716 61.06100082397461,0.40400001406669617 C61.06100082397461,0.40400001406669617 61.06100082397461,-47.18899917602539 61.06100082397461,-47.18899917602539 C61.06100082397461,-47.18899917602539 61.06100082397461,-54.005001068115234 61.06100082397461,-54.005001068115234 C61.06100082397461,-57.60100173950195 57.316001892089844,-59.29800033569336 54.33399963378906,-57.8650016784668 C41.54399871826172,-51.71500015258789 28.753999710083008,-45.566001892089844 15.96399974822998,-39.41600036621094 C-4.2779998779296875,-29.68400001525879 -24.518999099731445,-19.95199966430664 -44.7599983215332,-10.218999862670898 C-49.448001861572266,-7.965000152587891 -54.137001037597656,-5.710000038146973 -58.82500076293945,-3.4570000171661377 C-60.20100021362305,-2.7939999103546143 -61.05400085449219,-1.0679999589920044 -61.040000915527344,0.40400001406669617 C-60.89099884033203,15.906999588012695 -60.74100112915039,31.410999298095703 -60.59199905395508,46.915000915527344 C-60.57099914550781,49.12099838256836 -60.54999923706055,51.327999114990234 -60.52899932861328,53.53499984741211 C-60.472999572753906,59.28499984741211 -51.53200149536133,59.29899978637695 -51.5880012512207,53.53499984741211 C-51.73699951171875,38.03099822998047 -51.88600158691406,22.527999877929688 -52.03499984741211,7.02400016784668 C-52.055999755859375,4.816999912261963 -52.07899856567383,2.609999895095825 -52.099998474121094,0.40400001406669617 C-52.8380012512207,1.690000057220459 -53.57500076293945,2.9769999980926514 -54.3129997253418,4.263000011444092 C-41.52299880981445,-1.8860000371932983 -28.732999801635742,-8.03600025177002 -15.942000389099121,-14.185999870300293 C4.298999786376953,-23.917999267578125 24.538999557495117,-33.650001525878906 44.779998779296875,-43.38199996948242 C49.46900177001953,-45.637001037597656 54.15800094604492,-47.89099884033203 58.84700012207031,-50.14500045776367 C56.60499954223633,-51.43199920654297 54.362998962402344,-52.71799850463867 52.119998931884766,-54.005001068115234 C52.119998931884766,-54.005001068115234 52.119998931884766,-6.413000106811523 52.119998931884766,-6.413000106811523 C52.119998931884766,-6.413000106811523 52.119998931884766,0.40400001406669617 52.119998931884766,0.40400001406669617 C52.85900115966797,-0.8830000162124634 53.59600067138672,-2.1689999103546143 54.33399963378906,-3.4570000171661377 C41.65700149536133,2.5230000019073486 28.981000900268555,8.50100040435791 16.30500030517578,14.479999542236328 C-3.9119999408721924,24.016000747680664 -24.128999710083008,33.55099868774414 -44.345001220703125,43.08599853515625 C-44.345001220703125,43.08599853515625 -58.31399917602539,49.67499923706055 -58.31399917602539,49.67499923706055 C-60.49800109863281,50.70500183105469 -61.060001373291016,53.8380012512207 -59.917999267578125,55.79100036621094 C-58.61000061035156,58.027000427246094 -55.99300003051758,58.428001403808594 -53.801998138427734,57.39500045776367z"></path></g><g opacity="1" transform="matrix(1,0,0,1,-273.38299560546875,261.99700927734375)"><path fill="rgb(9,9,9)" fill-opacity="1" d=" M617,176 C617,176 506,225 506,225 C506,225 504,175 504,175 C504,175 616,122 616,122 C616,122 617,176 617,176z"></path></g></g><g opacity="1" transform="matrix(1,0,0,1,0,176)"><g opacity="1" transform="matrix(1,0,0,1,422,138)"><path fill="rgb(204,236,195)" fill-opacity="1" d=" M-167.96499633789062,-6.493000030517578 C-167.96499633789062,-6.493000030517578 -277.9219970703125,48.917999267578125 -277.9219970703125,48.917999267578125 C-277.9219970703125,48.917999267578125 -279.65399169921875,100.86599731445312 -279.65399169921875,100.86599731445312 C-279.65399169921875,100.86599731445312 -56.277000427246094,216.01699829101562 -56.277000427246094,216.01699829101562 C-56.277000427246094,216.01699829101562 58.00899887084961,163.2030029296875 58.00899887084961,163.2030029296875 C58.00899887084961,163.2030029296875 55.4109992980957,108.65799713134766 55.4109992980957,108.65799713134766 C55.4109992980957,108.65799713134766 -167.96499633789062,-6.493000030517578 -167.96499633789062,-6.493000030517578z"></path></g><g opacity="1" transform="matrix(1,0,0,1,310.9259948730469,215.63299560546875)"><path fill="rgb(204,236,195)" fill-opacity="1" d=" M-168.7689971923828,-28.47599983215332 C-164.43699645996094,-26.183000564575195 -160.10499572753906,-23.888999938964844 -155.7729949951172,-21.59600067138672 C-144.66200256347656,-15.71399974822998 -133.5500030517578,-9.831999778747559 -122.43800354003906,-3.9509999752044678 C-107.37300109863281,4.025000095367432 -92.30799865722656,11.99899959564209 -77.24199676513672,19.974000930786133 C-61.11199951171875,28.511999130249023 -44.981998443603516,37.04999923706055 -28.851999282836914,45.5890007019043 C-14.343999862670898,53.26900100708008 0.164000004529953,60.946998596191406 14.67199993133545,68.62699890136719 C24.667999267578125,73.91899871826172 34.665000915527344,79.20999908447266 44.6609992980957,84.5009994506836 C47.071998596191406,85.7770004272461 49.48400115966797,87.05500030517578 51.89500045776367,88.33100128173828 C52.31700134277344,88.55400085449219 52.733001708984375,88.79399871826172 53.16299819946289,89.00199890136719 C55.090999603271484,89.93299865722656 56.715999603271484,89.49600219726562 58.45899963378906,88.6709976196289 C68.41799926757812,83.95099639892578 78.32499694824219,79.11900329589844 88.25599670410156,74.34400177001953 C104.39399719238281,66.58399963378906 120.53199768066406,58.82600021362305 136.66900634765625,51.06700134277344 C147.5279998779297,45.84600067138672 158.38600158691406,40.625 169.24600219726562,35.40399932861328 C169.79100036621094,35.141998291015625 170.3350067138672,34.87900161743164 170.87899780273438,34.617000579833984 C173.86099243164062,33.183998107910156 173.73399353027344,28.368000030517578 170.87899780273438,26.898000717163086 C166.5800018310547,24.680999755859375 162.27999877929688,22.465999603271484 157.97999572753906,20.250999450683594 C146.9290008544922,14.555999755859375 135.87899780273438,8.861000061035156 124.8290023803711,3.1659998893737793 C109.86799621582031,-4.544000148773193 94.90699768066406,-12.255999565124512 79.94499969482422,-19.965999603271484 C63.715999603271484,-28.329999923706055 47.487998962402344,-36.69300079345703 31.257999420166016,-45.05699920654297 C16.59000015258789,-52.61600112915039 1.9229999780654907,-60.17499923706055 -12.744999885559082,-67.73400115966797 C-23.07699966430664,-73.05799865722656 -33.409000396728516,-78.38300323486328 -43.74100112915039,-83.70800018310547 C-46.40800094604492,-85.08200073242188 -49.07400131225586,-86.45600128173828 -51.74100112915039,-87.83100128173828 C-53.994998931884766,-88.99199676513672 -55.71799850463867,-89.93399810791016 -58.43899917602539,-88.68499755859375 C-67.68599700927734,-84.44300079345703 -76.82099914550781,-79.94000244140625 -86.00700378417969,-75.56999969482422 C-102.05500030517578,-67.93499755859375 -118.10199737548828,-60.29999923706055 -134.1490020751953,-52.665000915527344 C-145.13099670410156,-47.439998626708984 -156.11300659179688,-42.21699905395508 -167.09500122070312,-36.992000579833984 C-167.6529998779297,-36.72700119018555 -168.21099853515625,-36.459999084472656 -168.7689971923828,-36.19499969482422 C-170.94900512695312,-35.15800094604492 -171.51800537109375,-32.0369987487793 -170.3730010986328,-30.07900047302246 C-169.0679931640625,-27.849000930786133 -166.44400024414062,-27.434999465942383 -164.25599670410156,-28.47599983215332 C-151.76699829101562,-34.417999267578125 -139.2760009765625,-40.35900115966797 -126.78700256347656,-46.301998138427734 C-106.96299743652344,-55.731998443603516 -87.14099884033203,-65.16300201416016 -67.31700134277344,-74.59400177001953 C-62.762001037597656,-76.76100158691406 -58.20600128173828,-78.92900085449219 -53.6510009765625,-81.09600067138672 C-53.6510009765625,-81.09600067138672 -58.16400146484375,-81.09600067138672 -58.16400146484375,-81.09600067138672 C-50.68299865722656,-77.23999786376953 -43.20100021362305,-73.38500213623047 -35.720001220703125,-69.52899932861328 C-17.893999099731445,-60.34299850463867 -0.06800000369548798,-51.15599822998047 17.756999969482422,-41.96900177001953 C17.756999969482422,-41.96900177001953 82.80799865722656,-8.444999694824219 82.80799865722656,-8.444999694824219 C101.43900299072266,1.156999945640564 120.06900024414062,10.758000373840332 138.6999969482422,20.358999252319336 C144.8769989013672,23.54400062561035 151.05599975585938,26.726999282836914 157.23500061035156,29.910999298095703 C160.1269989013672,31.400999069213867 163.0019989013672,33.154998779296875 165.99899291992188,34.426998138427734 C166.125,34.48099899291992 166.24600219726562,34.55400085449219 166.3679962158203,34.617000579833984 C166.3679962158203,34.617000579833984 166.3679962158203,26.898000717163086 166.3679962158203,26.898000717163086 C153.57699584960938,33.047000885009766 140.78700256347656,39.19599914550781 127.99700164794922,45.34700012207031 C107.75499725341797,55.07899856567383 87.51399993896484,64.81099700927734 67.27300262451172,74.54299926757812 C62.584999084472656,76.7979965209961 57.895999908447266,79.052001953125 53.20800018310547,81.30599975585938 C53.20800018310547,81.30599975585938 57.720001220703125,81.30599975585938 57.720001220703125,81.30599975585938 C50.32600021362305,77.39199829101562 42.930999755859375,73.47799682617188 35.53799819946289,69.56400299072266 C17.917999267578125,60.23699951171875 0.29899999499320984,50.9109992980957 -17.319000244140625,41.58399963378906 C-38.75299835205078,30.238000869750977 -60.1870002746582,18.89299964904785 -81.62200164794922,7.546999931335449 C-100.04000091552734,-2.203000068664551 -118.45800018310547,-11.95300006866455 -136.8769989013672,-21.702999114990234 C-145.8730010986328,-26.46500015258789 -154.79100036621094,-31.430999755859375 -163.88800048828125,-36 C-164.01199340820312,-36.0620002746582 -164.13400268554688,-36.130001068115234 -164.25599670410156,-36.19499969482422 C-169.33799743652344,-38.8849983215332 -173.86099243164062,-31.172000885009766 -168.7689971923828,-28.47599983215332z"></path></g><g opacity="1" transform="matrix(1,0,0,1,254.2209930419922,268.59100341796875)"><path fill="rgb(204,236,195)" fill-opacity="1" d=" M-112.06400299072266,-25.74799919128418 C-104.66200256347656,-21.923999786376953 -97.25900268554688,-18.099000930786133 -89.85700225830078,-14.274999618530273 C-72.15299987792969,-5.127999782562256 -54.44900131225586,4.01800012588501 -36.74599838256836,13.164999961853027 C-15.274999618530273,24.256999969482422 6.195000171661377,35.349998474121094 27.665000915527344,46.44200134277344 C46.154998779296875,55.994998931884766 64.64399719238281,65.5469970703125 83.13400268554688,75.0999984741211 C92.10099792480469,79.73300170898438 100.99700164794922,84.54499816894531 110.0510025024414,89.00700378417969 C110.1760025024414,89.06900024414062 110.30000305175781,89.13500213623047 110.4229965209961,89.19999694824219 C113.36699676513672,90.72000122070312 117.18399810791016,88.87100219726562 117.1500015258789,85.33899688720703 C117.0009994506836,69.83599853515625 116.85099792480469,54.33300018310547 116.7020034790039,38.82899856567383 C116.68099975585938,36.62200164794922 116.66100311279297,34.41600036621094 116.63899993896484,32.20899963378906 C116.6240005493164,30.680999755859375 115.80899810791016,29.082000732421875 114.42400360107422,28.347999572753906 C107.02999877929688,24.43400001525879 99.63600158691406,20.520000457763672 92.24299621582031,16.606000900268555 C74.62300109863281,7.28000020980835 57.00299835205078,-2.0460000038146973 39.3849983215332,-11.373000144958496 C17.951000213623047,-22.7189998626709 -3.4820001125335693,-34.064998626708984 -24.91699981689453,-45.4109992980957 C-43.334999084472656,-55.1609992980957 -61.75400161743164,-64.91100311279297 -80.1729965209961,-74.66100311279297 C-89.16899871826172,-79.4219970703125 -98.08599853515625,-84.38899993896484 -107.18299865722656,-88.95800018310547 C-107.30699920654297,-89.0199966430664 -107.43000030517578,-89.08799743652344 -107.552001953125,-89.15399932861328 C-110.51200103759766,-90.72000122070312 -114.27899932861328,-88.79000091552734 -114.27899932861328,-85.29299926757812 C-114.27899932861328,-85.29299926757812 -114.27899932861328,-36.46500015258789 -114.27899932861328,-36.46500015258789 C-114.27899932861328,-36.46500015258789 -114.27899932861328,-29.607999801635742 -114.27899932861328,-29.607999801635742 C-114.27899932861328,-23.854999542236328 -105.33699798583984,-23.84600067138672 -105.33699798583984,-29.607999801635742 C-105.33699798583984,-29.607999801635742 -105.33699798583984,-78.43699645996094 -105.33699798583984,-78.43699645996094 C-105.33699798583984,-78.43699645996094 -105.33699798583984,-85.29299926757812 -105.33699798583984,-85.29299926757812 C-105.33699798583984,-85.29299926757812 -112.06400299072266,-81.43399810791016 -112.06400299072266,-81.43399810791016 C-104.66899871826172,-77.51899719238281 -97.2750015258789,-73.6050033569336 -89.88099670410156,-69.69100189208984 C-72.26200103759766,-60.3650016784668 -54.643001556396484,-51.03900146484375 -37.02399826049805,-41.71200180053711 C-15.59000015258789,-30.365999221801758 5.8429999351501465,-19.020000457763672 27.277000427246094,-7.673999786376953 C45.69499969482422,2.0759999752044678 64.11399841308594,11.826000213623047 82.53299713134766,21.575000762939453 C88.64299774169922,24.809999465942383 94.75499725341797,28.04400062561035 100.86599731445312,31.27899932861328 C103.7249984741211,32.79199981689453 106.56999969482422,34.5880012512207 109.54299926757812,35.87300109863281 C109.66899871826172,35.926998138427734 109.79000091552734,36.00299835205078 109.91300201416016,36.06800079345703 C109.17500305175781,34.78200149536133 108.43699645996094,33.494998931884766 107.6989974975586,32.20899963378906 C107.8479995727539,47.71099853515625 107.99600219726562,63.21500015258789 108.1449966430664,78.71900177001953 C108.16600036621094,80.9260025024414 108.18800354003906,83.13200378417969 108.20800018310547,85.33899688720703 C110.45099639892578,84.0530014038086 112.69400024414062,82.76599884033203 114.93599700927734,81.4800033569336 C107.53399658203125,77.65599822998047 100.12999725341797,73.83100128173828 92.72799682617188,70.00599670410156 C75.0250015258789,60.86000061035156 57.321998596191406,51.7130012512207 39.61800003051758,42.56700134277344 C18.148000717163086,31.474000930786133 -3.322000026702881,20.381000518798828 -24.792999267578125,9.289999961853027 C-43.28200149536133,-0.2630000114440918 -61.77299880981445,-9.815999984741211 -80.26300048828125,-19.368999481201172 C-89.2300033569336,-24.000999450683594 -98.1259994506836,-28.812999725341797 -107.18000030517578,-33.2760009765625 C-107.30500030517578,-33.33700180053711 -107.42900085449219,-33.40399932861328 -107.552001953125,-33.46799850463867 C-112.65599822998047,-36.10499954223633 -117.18299865722656,-28.39299964904785 -112.06400299072266,-25.74799919128418z"></path></g><g opacity="1" transform="matrix(1,0,0,1,422.9590148925781,300.3970031738281)"><path fill="rgb(9,9,9)" fill-opacity="1" d=" M-53.801998138427734,57.39400100708008 C-41.125,51.415000915527344 -28.447999954223633,45.43600082397461 -15.77299976348877,39.457000732421875 C4.443999767303467,29.92099952697754 24.660999298095703,20.38599967956543 44.87799835205078,10.85099983215332 C44.87799835205078,10.85099983215332 58.84600067138672,4.26200008392334 58.84600067138672,4.26200008392334 C60.23400115966797,3.6080000400543213 61.060001373291016,1.86899995803833 61.060001373291016,0.40299999713897705 C61.060001373291016,0.40299999713897705 61.060001373291016,-47.189998626708984 61.060001373291016,-47.189998626708984 C61.060001373291016,-47.189998626708984 61.060001373291016,-54.005001068115234 61.060001373291016,-54.005001068115234 C61.060001373291016,-57.60100173950195 57.316001892089844,-59.29800033569336 54.334999084472656,-57.8650016784668 C41.54399871826172,-51.71500015258789 28.753999710083008,-45.56700134277344 15.96399974822998,-39.41699981689453 C-4.2779998779296875,-29.68400001525879 -24.518999099731445,-19.952999114990234 -44.7599983215332,-10.220000267028809 C-49.448001861572266,-7.965000152587891 -54.137001037597656,-5.710999965667725 -58.82500076293945,-3.4579999446868896 C-60.20100021362305,-2.7950000762939453 -61.053001403808594,-1.069000005722046 -61.03900146484375,0.40299999713897705 C-60.88999938964844,15.906000137329102 -60.74100112915039,31.40999984741211 -60.59199905395508,46.91400146484375 C-60.57099914550781,49.12099838256836 -60.54899978637695,51.32699966430664 -60.52899932861328,53.534000396728516 C-60.472999572753906,59.284000396728516 -51.53200149536133,59.29800033569336 -51.5880012512207,53.534000396728516 C-51.73699951171875,38.03099822998047 -51.88600158691406,22.527000427246094 -52.03499984741211,7.0229997634887695 C-52.055999755859375,4.815999984741211 -52.07699966430664,2.609999895095825 -52.0989990234375,0.40299999713897705 C-52.83700180053711,1.6890000104904175 -53.57400131225586,2.9760000705718994 -54.3129997253418,4.26200008392334 C-54.3129997253418,4.26200008392334 -15.942999839782715,-14.185999870300293 -15.942999839782715,-14.185999870300293 C4.298999786376953,-23.91900062561035 24.541000366210938,-33.6510009765625 44.78200149536133,-43.382999420166016 C49.470001220703125,-45.637001037597656 54.15800094604492,-47.891998291015625 58.84600067138672,-50.145999908447266 C58.84600067138672,-50.145999908447266 52.119998931884766,-54.005001068115234 52.119998931884766,-54.005001068115234 C52.119998931884766,-54.005001068115234 52.119998931884766,-6.414000034332275 52.119998931884766,-6.414000034332275 C52.119998931884766,-6.414000034332275 52.119998931884766,0.40299999713897705 52.119998931884766,0.40299999713897705 C52.858001708984375,-0.8840000033378601 53.59600067138672,-2.1700000762939453 54.334999084472656,-3.4579999446868896 C41.65800094604492,2.5220000743865967 28.981000900268555,8.5 16.304000854492188,14.479999542236328 C16.304000854492188,14.479999542236328 -44.34600067138672,43.084999084472656 -44.34600067138672,43.084999084472656 C-44.34600067138672,43.084999084472656 -58.314998626708984,49.67399978637695 -58.314998626708984,49.67399978637695 C-60.49700164794922,50.70399856567383 -61.060001373291016,53.83700180053711 -59.917999267578125,55.790000915527344 C-58.611000061035156,58.0260009765625 -55.99300003051758,58.426998138427734 -53.801998138427734,57.39400100708008z"></path></g><g opacity="1" transform="matrix(1,0,0,1,-138.02499389648438,125.3280029296875)"><path fill="rgb(9,9,9)" fill-opacity="1" d=" M617,176 C617,176 506,225 506,225 C506,225 504,175 504,175 C504,175 616,122 616,122 C616,122 617,176 617,176z"></path></g></g><g opacity="1" transform="matrix(1,0,0,1,0,199)"><g opacity="1" transform="matrix(1,0,0,1,286,274)"><path fill="rgb(204,236,195)" fill-opacity="1" d=" M-167.96499633789062,-6.493000030517578 C-167.96499633789062,-6.493000030517578 -277.9219970703125,48.917999267578125 -277.9219970703125,48.917999267578125 C-277.9219970703125,48.917999267578125 -279.65399169921875,100.86599731445312 -279.65399169921875,100.86599731445312 C-279.65399169921875,100.86599731445312 -56.277000427246094,216.01699829101562 -56.277000427246094,216.01699829101562 C-56.277000427246094,216.01699829101562 58.00899887084961,163.2030029296875 58.00899887084961,163.2030029296875 C58.00899887084961,163.2030029296875 55.4109992980957,108.65799713134766 55.4109992980957,108.65799713134766 C55.4109992980957,108.65799713134766 -167.96499633789062,-6.493000030517578 -167.96499633789062,-6.493000030517578z"></path></g><g opacity="1" transform="matrix(1,0,0,1,174.13699340820312,353.4419860839844)"><path fill="rgb(204,236,195)" fill-opacity="1" d=" M-168.76800537109375,-28.47599983215332 C-164.43600463867188,-26.183000564575195 -160.10400390625,-23.888999938964844 -155.77200317382812,-21.59600067138672 C-144.66099548339844,-15.71399974822998 -133.5489959716797,-9.833000183105469 -122.43699645996094,-3.9519999027252197 C-107.37200164794922,4.02400016784668 -92.30699920654297,11.99899959564209 -77.24099731445312,19.972999572753906 C-77.24099731445312,19.972999572753906 -28.85099983215332,45.58700180053711 -28.85099983215332,45.58700180053711 C-14.343000411987305,53.268001556396484 0.16500000655651093,60.948001861572266 14.67300033569336,68.62799835205078 C24.66900062561035,73.91899871826172 34.665000915527344,79.21099853515625 44.6609992980957,84.50199890136719 C47.073001861572266,85.77799987792969 49.48400115966797,87.05400085449219 51.895999908447266,88.33200073242188 C52.31700134277344,88.55400085449219 52.73400115966797,88.79499816894531 53.16299819946289,89.00199890136719 C55.09199905395508,89.93299865722656 56.71699905395508,89.49700164794922 58.459999084472656,88.6709976196289 C68.41799926757812,83.95099639892578 78.32499694824219,79.12000274658203 88.25700378417969,74.34300231933594 C104.3949966430664,66.58499908447266 120.53299713134766,58.82600021362305 136.6699981689453,51.066001892089844 C147.5279998779297,45.845001220703125 158.38800048828125,40.625999450683594 169.24600219726562,35.40399932861328 C169.24600219726562,35.40399932861328 170.88099670410156,34.61800003051758 170.88099670410156,34.61800003051758 C173.86099243164062,33.183998107910156 173.73399353027344,28.368999481201172 170.88099670410156,26.898000717163086 C166.58099365234375,24.68199920654297 162.27999877929688,22.465999603271484 157.9810028076172,20.250999450683594 C146.93099975585938,14.555999755859375 135.8800048828125,8.861000061035156 124.83000183105469,3.1670000553131104 C109.86900329589844,-4.544000148773193 94.90699768066406,-12.255000114440918 79.94599914550781,-19.965999603271484 C63.71699905395508,-28.329999923706055 47.487998962402344,-36.694000244140625 31.259000778198242,-45.05699920654297 C16.591999053955078,-52.617000579833984 1.9240000247955322,-60.17399978637695 -12.744000434875488,-67.73400115966797 C-23.076000213623047,-73.05799865722656 -33.40800094604492,-78.38400268554688 -43.7400016784668,-83.70800018310547 C-46.40700149536133,-85.08300018310547 -49.073001861572266,-86.45700073242188 -51.7400016784668,-87.83100128173828 C-53.99399948120117,-88.99299621582031 -55.71699905395508,-89.93399810791016 -58.43899917602539,-88.68499755859375 C-67.68499755859375,-84.44300079345703 -76.81999969482422,-79.94000244140625 -86.00599670410156,-75.56999969482422 C-86.00599670410156,-75.56999969482422 -134.1479949951172,-52.665000915527344 -134.1479949951172,-52.665000915527344 C-134.1479949951172,-52.665000915527344 -167.093994140625,-36.992000579833984 -167.093994140625,-36.992000579833984 C-167.65199279785156,-36.72700119018555 -168.2100067138672,-36.459999084472656 -168.76800537109375,-36.19499969482422 C-170.947998046875,-35.15800094604492 -171.51699829101562,-32.0369987487793 -170.3719940185547,-30.07900047302246 C-169.06700134277344,-27.847999572753906 -166.44500732421875,-27.434999465942383 -164.25599670410156,-28.47599983215332 C-151.76699829101562,-34.417999267578125 -139.2760009765625,-40.36000061035156 -126.78600311279297,-46.301998138427734 C-106.96199798583984,-55.733001708984375 -87.13999938964844,-65.16400146484375 -67.31600189208984,-74.59500122070312 C-62.76100158691406,-76.76200103759766 -58.20500183105469,-78.92900085449219 -53.650001525878906,-81.09600067138672 C-53.650001525878906,-81.09600067138672 -58.16299819946289,-81.09600067138672 -58.16299819946289,-81.09600067138672 C-50.68199920654297,-77.24099731445312 -43.20100021362305,-73.38500213623047 -35.71900177001953,-69.52999877929688 C-17.89299964904785,-60.34299850463867 -0.06700000166893005,-51.15700149536133 17.759000778198242,-41.96900177001953 C17.759000778198242,-41.96900177001953 82.80999755859375,-8.444999694824219 82.80999755859375,-8.444999694824219 C101.44000244140625,1.156000018119812 120.06999969482422,10.756999969482422 138.6999969482422,20.358999252319336 C144.87899780273438,23.542999267578125 151.0570068359375,26.726999282836914 157.23500061035156,29.910999298095703 C160.1269989013672,31.400999069213867 163.0019989013672,33.15599822998047 165.99899291992188,34.426998138427734 C166.12600708007812,34.48099899291992 166.24600219726562,34.55400085449219 166.3679962158203,34.61800003051758 C166.3679962158203,34.61800003051758 166.3679962158203,26.898000717163086 166.3679962158203,26.898000717163086 C153.5780029296875,33.047000885009766 140.78799438476562,39.196998596191406 127.99800109863281,45.34700012207031 C107.75599670410156,55.07899856567383 87.51499938964844,64.81099700927734 67.27400207519531,74.54399871826172 C62.58599853515625,76.7969970703125 57.89699935913086,79.052001953125 53.20899963378906,81.30599975585938 C53.20899963378906,81.30599975585938 57.72100067138672,81.30599975585938 57.72100067138672,81.30599975585938 C50.32699966430664,77.39199829101562 42.93299865722656,73.47799682617188 35.53799819946289,69.56400299072266 C17.91900062561035,60.237998962402344 0.30000001192092896,50.9109992980957 -17.31800079345703,41.584999084472656 C-38.75199890136719,30.23900032043457 -60.18600082397461,18.892000198364258 -81.62100219726562,7.546000003814697 C-100.03900146484375,-2.2039999961853027 -118.45800018310547,-11.95300006866455 -136.87600708007812,-21.702999114990234 C-145.8719940185547,-26.464000701904297 -154.7899932861328,-31.430999755859375 -163.88699340820312,-36 C-164.01100158691406,-36.0629997253418 -164.13400268554688,-36.12900161743164 -164.25599670410156,-36.19499969482422 C-169.33799743652344,-38.8849983215332 -173.86000061035156,-31.17099952697754 -168.76800537109375,-28.47599983215332z"></path></g><g opacity="1" transform="matrix(1,0,0,1,117.43299865722656,406.3999938964844)"><path fill="rgb(204,236,195)" fill-opacity="1" d=" M-112.06400299072266,-25.74799919128418 C-104.66200256347656,-21.923999786376953 -97.26000213623047,-18.099000930786133 -89.85800170898438,-14.27400016784668 C-72.15399932861328,-5.127999782562256 -54.44900131225586,4.019000053405762 -36.74599838256836,13.164999961853027 C-15.274999618530273,24.257999420166016 6.195000171661377,35.35100173950195 27.665000915527344,46.44200134277344 C27.665000915527344,46.44200134277344 83.13400268554688,75.10099792480469 83.13400268554688,75.10099792480469 C92.10099792480469,79.73300170898438 100.99700164794922,84.5459976196289 110.0510025024414,89.00800323486328 C110.1760025024414,89.06900024414062 110.29900360107422,89.13600158691406 110.4229965209961,89.19999694824219 C113.36499786376953,90.72000122070312 117.18399810791016,88.87100219726562 117.1500015258789,85.33999633789062 C117.0009994506836,69.83599853515625 116.85099792480469,54.33300018310547 116.7020034790039,38.82899856567383 C116.68099975585938,36.62200164794922 116.66000366210938,34.415000915527344 116.63899993896484,32.20899963378906 C116.6240005493164,30.68199920654297 115.80899810791016,29.082000732421875 114.42400360107422,28.349000930786133 C107.02999877929688,24.434999465942383 99.63600158691406,20.520999908447266 92.24099731445312,16.606000900268555 C74.62200164794922,7.28000020980835 57.00299835205078,-2.046999931335449 39.3849983215332,-11.373000144958496 C17.951000213623047,-22.7189998626709 -3.4830000400543213,-34.064998626708984 -24.917999267578125,-45.4109992980957 C-43.33599853515625,-55.1609992980957 -61.755001068115234,-64.91000366210938 -80.1729965209961,-74.66000366210938 C-89.16899871826172,-79.4219970703125 -98.08699798583984,-84.38899993896484 -107.18399810791016,-88.95800018310547 C-107.30799865722656,-89.0199966430664 -107.43000030517578,-89.08799743652344 -107.552001953125,-89.15299987792969 C-110.51200103759766,-90.72000122070312 -114.27899932861328,-88.79000091552734 -114.27899932861328,-85.29299926757812 C-114.27899932861328,-85.29299926757812 -114.27899932861328,-36.46500015258789 -114.27899932861328,-36.46500015258789 C-114.27899932861328,-36.46500015258789 -114.27899932861328,-29.60700035095215 -114.27899932861328,-29.60700035095215 C-114.27899932861328,-23.854000091552734 -105.33699798583984,-23.84600067138672 -105.33699798583984,-29.60700035095215 C-105.33699798583984,-29.60700035095215 -105.33699798583984,-78.43599700927734 -105.33699798583984,-78.43599700927734 C-105.33699798583984,-78.43599700927734 -105.33699798583984,-85.29299926757812 -105.33699798583984,-85.29299926757812 C-107.58000183105469,-84.00700378417969 -109.8219985961914,-82.72000122070312 -112.06400299072266,-81.43399810791016 C-104.66899871826172,-77.51899719238281 -97.2760009765625,-73.6050033569336 -89.88200378417969,-69.69100189208984 C-72.26300048828125,-60.36399841308594 -54.64400100708008,-51.03799819946289 -37.025001525878906,-41.71200180053711 C-15.590999603271484,-30.365999221801758 5.8429999351501465,-19.018999099731445 27.277000427246094,-7.673999786376953 C45.69499969482422,2.0759999752044678 64.11399841308594,11.826000213623047 82.53299713134766,21.575000762939453 C88.64299774169922,24.81100082397461 94.75499725341797,28.045000076293945 100.86599731445312,31.27899932861328 C103.72599792480469,32.792999267578125 106.56999969482422,34.5890007019043 109.54299926757812,35.87300109863281 C109.66899871826172,35.928001403808594 109.79100036621094,36.00400161743164 109.91300201416016,36.06800079345703 C109.17500305175781,34.78200149536133 108.43699645996094,33.494998931884766 107.6989974975586,32.20899963378906 C107.8479995727539,47.71200180053711 107.99600219726562,63.215999603271484 108.1449966430664,78.72000122070312 C108.16600036621094,80.9260025024414 108.18699645996094,83.13300323486328 108.20800018310547,85.33999633789062 C110.45099639892578,84.05400085449219 112.69400024414062,82.76699829101562 114.93599700927734,81.48100280761719 C107.53399658203125,77.65499877929688 100.12999725341797,73.83100128173828 92.72799682617188,70.00700378417969 C75.02400207519531,60.86000061035156 57.321998596191406,51.7140007019043 39.61800003051758,42.56700134277344 C18.14699935913086,31.475000381469727 -3.322000026702881,20.381999969482422 -24.792999267578125,9.289999961853027 C-24.792999267578125,9.289999961853027 -80.26300048828125,-19.368000030517578 -80.26300048828125,-19.368000030517578 C-89.2300033569336,-24.000999450683594 -98.12699890136719,-28.812999725341797 -107.18099975585938,-33.275001525878906 C-107.30599975585938,-33.33700180053711 -107.42900085449219,-33.40299987792969 -107.552001953125,-33.46799850463867 C-112.65599822998047,-36.104000091552734 -117.18299865722656,-28.39299964904785 -112.06400299072266,-25.74799919128418z"></path></g><g opacity="1" transform="matrix(1,0,0,1,286.1709899902344,438.20599365234375)"><path fill="rgb(9,9,9)" fill-opacity="1" d=" M-53.801998138427734,57.39500045776367 C-41.125999450683594,51.41600036621094 -28.448999404907227,45.4370002746582 -15.77299976348877,39.45800018310547 C4.443999767303467,29.922000885009766 24.660999298095703,20.386999130249023 44.87799835205078,10.85200023651123 C44.87799835205078,10.85200023651123 58.84700012207031,4.263000011444092 58.84700012207031,4.263000011444092 C60.23500061035156,3.6089999675750732 61.06100082397461,1.8700000047683716 61.06100082397461,0.40400001406669617 C61.06100082397461,0.40400001406669617 61.06100082397461,-47.18899917602539 61.06100082397461,-47.18899917602539 C61.06100082397461,-47.18899917602539 61.06100082397461,-54.005001068115234 61.06100082397461,-54.005001068115234 C61.06100082397461,-57.60100173950195 57.316001892089844,-59.29800033569336 54.33399963378906,-57.8650016784668 C41.54399871826172,-51.71500015258789 28.753999710083008,-45.566001892089844 15.96399974822998,-39.41600036621094 C-4.2779998779296875,-29.68400001525879 -24.518999099731445,-19.95199966430664 -44.7599983215332,-10.218999862670898 C-49.448001861572266,-7.965000152587891 -54.137001037597656,-5.710000038146973 -58.82500076293945,-3.4570000171661377 C-60.20100021362305,-2.7939999103546143 -61.05400085449219,-1.0679999589920044 -61.040000915527344,0.40400001406669617 C-60.89099884033203,15.906999588012695 -60.74100112915039,31.410999298095703 -60.59199905395508,46.915000915527344 C-60.57099914550781,49.12099838256836 -60.54999923706055,51.327999114990234 -60.52899932861328,53.53499984741211 C-60.472999572753906,59.28499984741211 -51.53200149536133,59.29899978637695 -51.5880012512207,53.53499984741211 C-51.73699951171875,38.03099822998047 -51.88600158691406,22.527999877929688 -52.03499984741211,7.02400016784668 C-52.055999755859375,4.816999912261963 -52.07899856567383,2.609999895095825 -52.099998474121094,0.40400001406669617 C-52.8380012512207,1.690000057220459 -53.57500076293945,2.9769999980926514 -54.3129997253418,4.263000011444092 C-41.52299880981445,-1.8860000371932983 -28.732999801635742,-8.03600025177002 -15.942000389099121,-14.185999870300293 C4.298999786376953,-23.917999267578125 24.538999557495117,-33.650001525878906 44.779998779296875,-43.38199996948242 C49.46900177001953,-45.637001037597656 54.15800094604492,-47.89099884033203 58.84700012207031,-50.14500045776367 C56.60499954223633,-51.43199920654297 54.362998962402344,-52.71799850463867 52.119998931884766,-54.005001068115234 C52.119998931884766,-54.005001068115234 52.119998931884766,-6.413000106811523 52.119998931884766,-6.413000106811523 C52.119998931884766,-6.413000106811523 52.119998931884766,0.40400001406669617 52.119998931884766,0.40400001406669617 C52.85900115966797,-0.8830000162124634 53.59600067138672,-2.1689999103546143 54.33399963378906,-3.4570000171661377 C41.65700149536133,2.5230000019073486 28.981000900268555,8.50100040435791 16.30500030517578,14.479999542236328 C-3.9119999408721924,24.016000747680664 -24.128999710083008,33.55099868774414 -44.345001220703125,43.08599853515625 C-44.345001220703125,43.08599853515625 -58.31399917602539,49.67499923706055 -58.31399917602539,49.67499923706055 C-60.49800109863281,50.70500183105469 -61.060001373291016,53.8380012512207 -59.917999267578125,55.79100036621094 C-58.61000061035156,58.027000427246094 -55.99300003051758,58.428001403808594 -53.801998138427734,57.39500045776367z"></path></g><g opacity="1" transform="matrix(1,0,0,1,-273.46600341796875,264.197998046875)"><path fill="rgb(9,9,9)" fill-opacity="1" d=" M617,176 C617,176 506,225 506,225 C506,225 504,175 504,175 C504,175 616,122 616,122 C616,122 617,176 617,176z"></path></g></g><g opacity="1" transform="matrix(1,0,0,1,-140,130)"><g opacity="1" transform="matrix(1,0,0,1,286,276)"><path fill="rgb(204,236,195)" fill-opacity="1" d=" M-167.96499633789062,-6.493000030517578 C-167.96499633789062,-6.493000030517578 -277.9219970703125,48.917999267578125 -277.9219970703125,48.917999267578125 C-277.9219970703125,48.917999267578125 -279.65399169921875,100.86599731445312 -279.65399169921875,100.86599731445312 C-279.65399169921875,100.86599731445312 -56.277000427246094,216.01699829101562 -56.277000427246094,216.01699829101562 C-56.277000427246094,216.01699829101562 58.00899887084961,163.2030029296875 58.00899887084961,163.2030029296875 C58.00899887084961,163.2030029296875 55.4109992980957,108.65799713134766 55.4109992980957,108.65799713134766 C55.4109992980957,108.65799713134766 -167.96499633789062,-6.493000030517578 -167.96499633789062,-6.493000030517578z"></path></g><g opacity="1" transform="matrix(1,0,0,1,174.13699340820312,353.4419860839844)"><path fill="rgb(204,236,195)" fill-opacity="1" d=" M-168.76800537109375,-28.47599983215332 C-164.43600463867188,-26.183000564575195 -160.10400390625,-23.888999938964844 -155.77200317382812,-21.59600067138672 C-144.66099548339844,-15.71399974822998 -133.5489959716797,-9.833000183105469 -122.43699645996094,-3.9519999027252197 C-107.37200164794922,4.02400016784668 -92.30699920654297,11.99899959564209 -77.24099731445312,19.972999572753906 C-77.24099731445312,19.972999572753906 -28.85099983215332,45.58700180053711 -28.85099983215332,45.58700180053711 C-14.343000411987305,53.268001556396484 0.16500000655651093,60.948001861572266 14.67300033569336,68.62799835205078 C24.66900062561035,73.91899871826172 34.665000915527344,79.21099853515625 44.6609992980957,84.50199890136719 C47.073001861572266,85.77799987792969 49.48400115966797,87.05400085449219 51.895999908447266,88.33200073242188 C52.31700134277344,88.55400085449219 52.73400115966797,88.79499816894531 53.16299819946289,89.00199890136719 C55.09199905395508,89.93299865722656 56.71699905395508,89.49700164794922 58.459999084472656,88.6709976196289 C68.41799926757812,83.95099639892578 78.32499694824219,79.12000274658203 88.25700378417969,74.34300231933594 C104.3949966430664,66.58499908447266 120.53299713134766,58.82600021362305 136.6699981689453,51.066001892089844 C147.5279998779297,45.845001220703125 158.38800048828125,40.625999450683594 169.24600219726562,35.40399932861328 C169.24600219726562,35.40399932861328 170.88099670410156,34.61800003051758 170.88099670410156,34.61800003051758 C173.86099243164062,33.183998107910156 173.73399353027344,28.368999481201172 170.88099670410156,26.898000717163086 C166.58099365234375,24.68199920654297 162.27999877929688,22.465999603271484 157.9810028076172,20.250999450683594 C146.93099975585938,14.555999755859375 135.8800048828125,8.861000061035156 124.83000183105469,3.1670000553131104 C109.86900329589844,-4.544000148773193 94.90699768066406,-12.255000114440918 79.94599914550781,-19.965999603271484 C63.71699905395508,-28.329999923706055 47.487998962402344,-36.694000244140625 31.259000778198242,-45.05699920654297 C16.591999053955078,-52.617000579833984 1.9240000247955322,-60.17399978637695 -12.744000434875488,-67.73400115966797 C-23.076000213623047,-73.05799865722656 -33.40800094604492,-78.38400268554688 -43.7400016784668,-83.70800018310547 C-46.40700149536133,-85.08300018310547 -49.073001861572266,-86.45700073242188 -51.7400016784668,-87.83100128173828 C-53.99399948120117,-88.99299621582031 -55.71699905395508,-89.93399810791016 -58.43899917602539,-88.68499755859375 C-67.68499755859375,-84.44300079345703 -76.81999969482422,-79.94000244140625 -86.00599670410156,-75.56999969482422 C-86.00599670410156,-75.56999969482422 -134.1479949951172,-52.665000915527344 -134.1479949951172,-52.665000915527344 C-134.1479949951172,-52.665000915527344 -167.093994140625,-36.992000579833984 -167.093994140625,-36.992000579833984 C-167.65199279785156,-36.72700119018555 -168.2100067138672,-36.459999084472656 -168.76800537109375,-36.19499969482422 C-170.947998046875,-35.15800094604492 -171.51699829101562,-32.0369987487793 -170.3719940185547,-30.07900047302246 C-169.06700134277344,-27.847999572753906 -166.44500732421875,-27.434999465942383 -164.25599670410156,-28.47599983215332 C-151.76699829101562,-34.417999267578125 -139.2760009765625,-40.36000061035156 -126.78600311279297,-46.301998138427734 C-106.96199798583984,-55.733001708984375 -87.13999938964844,-65.16400146484375 -67.31600189208984,-74.59500122070312 C-62.76100158691406,-76.76200103759766 -58.20500183105469,-78.92900085449219 -53.650001525878906,-81.09600067138672 C-53.650001525878906,-81.09600067138672 -58.16299819946289,-81.09600067138672 -58.16299819946289,-81.09600067138672 C-50.68199920654297,-77.24099731445312 -43.20100021362305,-73.38500213623047 -35.71900177001953,-69.52999877929688 C-17.89299964904785,-60.34299850463867 -0.06700000166893005,-51.15700149536133 17.759000778198242,-41.96900177001953 C17.759000778198242,-41.96900177001953 82.80999755859375,-8.444999694824219 82.80999755859375,-8.444999694824219 C101.44000244140625,1.156000018119812 120.06999969482422,10.756999969482422 138.6999969482422,20.358999252319336 C144.87899780273438,23.542999267578125 151.0570068359375,26.726999282836914 157.23500061035156,29.910999298095703 C160.1269989013672,31.400999069213867 163.0019989013672,33.15599822998047 165.99899291992188,34.426998138427734 C166.12600708007812,34.48099899291992 166.24600219726562,34.55400085449219 166.3679962158203,34.61800003051758 C166.3679962158203,34.61800003051758 166.3679962158203,26.898000717163086 166.3679962158203,26.898000717163086 C153.5780029296875,33.047000885009766 140.78799438476562,39.196998596191406 127.99800109863281,45.34700012207031 C107.75599670410156,55.07899856567383 87.51499938964844,64.81099700927734 67.27400207519531,74.54399871826172 C62.58599853515625,76.7969970703125 57.89699935913086,79.052001953125 53.20899963378906,81.30599975585938 C53.20899963378906,81.30599975585938 57.72100067138672,81.30599975585938 57.72100067138672,81.30599975585938 C50.32699966430664,77.39199829101562 42.93299865722656,73.47799682617188 35.53799819946289,69.56400299072266 C17.91900062561035,60.237998962402344 0.30000001192092896,50.9109992980957 -17.31800079345703,41.584999084472656 C-38.75199890136719,30.23900032043457 -60.18600082397461,18.892000198364258 -81.62100219726562,7.546000003814697 C-100.03900146484375,-2.2039999961853027 -118.45800018310547,-11.95300006866455 -136.87600708007812,-21.702999114990234 C-145.8719940185547,-26.464000701904297 -154.7899932861328,-31.430999755859375 -163.88699340820312,-36 C-164.01100158691406,-36.0629997253418 -164.13400268554688,-36.12900161743164 -164.25599670410156,-36.19499969482422 C-169.33799743652344,-38.8849983215332 -173.86000061035156,-31.17099952697754 -168.76800537109375,-28.47599983215332z"></path></g><g opacity="1" transform="matrix(1,0,0,1,286.1709899902344,438.20599365234375)"><path fill="rgb(204,236,195)" fill-opacity="1" d=" M-53.801998138427734,57.39500045776367 C-41.125999450683594,51.41600036621094 -28.448999404907227,45.4370002746582 -15.77299976348877,39.45800018310547 C4.443999767303467,29.922000885009766 24.660999298095703,20.386999130249023 44.87799835205078,10.85200023651123 C44.87799835205078,10.85200023651123 58.84700012207031,4.263000011444092 58.84700012207031,4.263000011444092 C60.23500061035156,3.6089999675750732 61.06100082397461,1.8700000047683716 61.06100082397461,0.40400001406669617 C61.06100082397461,0.40400001406669617 61.06100082397461,-47.18899917602539 61.06100082397461,-47.18899917602539 C61.06100082397461,-47.18899917602539 61.06100082397461,-54.005001068115234 61.06100082397461,-54.005001068115234 C61.06100082397461,-57.60100173950195 57.316001892089844,-59.29800033569336 54.33399963378906,-57.8650016784668 C41.54399871826172,-51.71500015258789 28.753999710083008,-45.566001892089844 15.96399974822998,-39.41600036621094 C-4.2779998779296875,-29.68400001525879 -24.518999099731445,-19.95199966430664 -44.7599983215332,-10.218999862670898 C-49.448001861572266,-7.965000152587891 -54.137001037597656,-5.710000038146973 -58.82500076293945,-3.4570000171661377 C-60.20100021362305,-2.7939999103546143 -61.05400085449219,-1.0679999589920044 -61.040000915527344,0.40400001406669617 C-60.89099884033203,15.906999588012695 -60.74100112915039,31.410999298095703 -60.59199905395508,46.915000915527344 C-60.57099914550781,49.12099838256836 -60.54999923706055,51.327999114990234 -60.52899932861328,53.53499984741211 C-60.472999572753906,59.28499984741211 -51.53200149536133,59.29899978637695 -51.5880012512207,53.53499984741211 C-51.73699951171875,38.03099822998047 -51.88600158691406,22.527999877929688 -52.03499984741211,7.02400016784668 C-52.055999755859375,4.816999912261963 -52.07899856567383,2.609999895095825 -52.099998474121094,0.40400001406669617 C-52.8380012512207,1.690000057220459 -53.57500076293945,2.9769999980926514 -54.3129997253418,4.263000011444092 C-41.52299880981445,-1.8860000371932983 -28.732999801635742,-8.03600025177002 -15.942000389099121,-14.185999870300293 C4.298999786376953,-23.917999267578125 24.538999557495117,-33.650001525878906 44.779998779296875,-43.38199996948242 C49.46900177001953,-45.637001037597656 54.15800094604492,-47.89099884033203 58.84700012207031,-50.14500045776367 C56.60499954223633,-51.43199920654297 54.362998962402344,-52.71799850463867 52.119998931884766,-54.005001068115234 C52.119998931884766,-54.005001068115234 52.119998931884766,-6.413000106811523 52.119998931884766,-6.413000106811523 C52.119998931884766,-6.413000106811523 52.119998931884766,0.40400001406669617 52.119998931884766,0.40400001406669617 C52.85900115966797,-0.8830000162124634 53.59600067138672,-2.1689999103546143 54.33399963378906,-3.4570000171661377 C41.65700149536133,2.5230000019073486 28.981000900268555,8.50100040435791 16.30500030517578,14.479999542236328 C-3.9119999408721924,24.016000747680664 -24.128999710083008,33.55099868774414 -44.345001220703125,43.08599853515625 C-44.345001220703125,43.08599853515625 -58.31399917602539,49.67499923706055 -58.31399917602539,49.67499923706055 C-60.49800109863281,50.70500183105469 -61.060001373291016,53.8380012512207 -59.917999267578125,55.79100036621094 C-58.61000061035156,58.027000427246094 -55.99300003051758,58.428001403808594 -53.801998138427734,57.39500045776367z"></path></g><g opacity="1" transform="matrix(1,0,0,1,117.43299865722656,406.3999938964844)"><path fill="rgb(204,236,195)" fill-opacity="1" d=" M-112.06400299072266,-25.74799919128418 C-104.66200256347656,-21.923999786376953 -97.26000213623047,-18.099000930786133 -89.85800170898438,-14.27400016784668 C-72.15399932861328,-5.127999782562256 -54.44900131225586,4.019000053405762 -36.74599838256836,13.164999961853027 C-15.274999618530273,24.257999420166016 6.195000171661377,35.35100173950195 27.665000915527344,46.44200134277344 C27.665000915527344,46.44200134277344 83.13400268554688,75.10099792480469 83.13400268554688,75.10099792480469 C92.10099792480469,79.73300170898438 100.99700164794922,84.5459976196289 110.0510025024414,89.00800323486328 C110.1760025024414,89.06900024414062 110.29900360107422,89.13600158691406 110.4229965209961,89.19999694824219 C113.36499786376953,90.72000122070312 117.18399810791016,88.87100219726562 117.1500015258789,85.33999633789062 C117.0009994506836,69.83599853515625 116.85099792480469,54.33300018310547 116.7020034790039,38.82899856567383 C116.68099975585938,36.62200164794922 116.66000366210938,34.415000915527344 116.63899993896484,32.20899963378906 C116.6240005493164,30.68199920654297 115.80899810791016,29.082000732421875 114.42400360107422,28.349000930786133 C107.02999877929688,24.434999465942383 99.63600158691406,20.520999908447266 92.24099731445312,16.606000900268555 C74.62200164794922,7.28000020980835 57.00299835205078,-2.046999931335449 39.3849983215332,-11.373000144958496 C17.951000213623047,-22.7189998626709 -3.4830000400543213,-34.064998626708984 -24.917999267578125,-45.4109992980957 C-43.33599853515625,-55.1609992980957 -61.755001068115234,-64.91000366210938 -80.1729965209961,-74.66000366210938 C-89.16899871826172,-79.4219970703125 -98.08699798583984,-84.38899993896484 -107.18399810791016,-88.95800018310547 C-107.30799865722656,-89.0199966430664 -107.43000030517578,-89.08799743652344 -107.552001953125,-89.15299987792969 C-110.51200103759766,-90.72000122070312 -114.27899932861328,-88.79000091552734 -114.27899932861328,-85.29299926757812 C-114.27899932861328,-85.29299926757812 -114.27899932861328,-36.46500015258789 -114.27899932861328,-36.46500015258789 C-114.27899932861328,-36.46500015258789 -114.27899932861328,-29.60700035095215 -114.27899932861328,-29.60700035095215 C-114.27899932861328,-23.854000091552734 -105.33699798583984,-23.84600067138672 -105.33699798583984,-29.60700035095215 C-105.33699798583984,-29.60700035095215 -105.33699798583984,-78.43599700927734 -105.33699798583984,-78.43599700927734 C-105.33699798583984,-78.43599700927734 -105.33699798583984,-85.29299926757812 -105.33699798583984,-85.29299926757812 C-107.58000183105469,-84.00700378417969 -109.8219985961914,-82.72000122070312 -112.06400299072266,-81.43399810791016 C-104.66899871826172,-77.51899719238281 -97.2760009765625,-73.6050033569336 -89.88200378417969,-69.69100189208984 C-72.26300048828125,-60.36399841308594 -54.64400100708008,-51.03799819946289 -37.025001525878906,-41.71200180053711 C-15.590999603271484,-30.365999221801758 5.8429999351501465,-19.018999099731445 27.277000427246094,-7.673999786376953 C45.69499969482422,2.0759999752044678 64.11399841308594,11.826000213623047 82.53299713134766,21.575000762939453 C88.64299774169922,24.81100082397461 94.75499725341797,28.045000076293945 100.86599731445312,31.27899932861328 C103.72599792480469,32.792999267578125 106.56999969482422,34.5890007019043 109.54299926757812,35.87300109863281 C109.66899871826172,35.928001403808594 109.79100036621094,36.00400161743164 109.91300201416016,36.06800079345703 C109.17500305175781,34.78200149536133 108.43699645996094,33.494998931884766 107.6989974975586,32.20899963378906 C107.8479995727539,47.71200180053711 107.99600219726562,63.215999603271484 108.1449966430664,78.72000122070312 C108.16600036621094,80.9260025024414 108.18699645996094,83.13300323486328 108.20800018310547,85.33999633789062 C110.45099639892578,84.05400085449219 112.69400024414062,82.76699829101562 114.93599700927734,81.48100280761719 C107.53399658203125,77.65499877929688 100.12999725341797,73.83100128173828 92.72799682617188,70.00700378417969 C75.02400207519531,60.86000061035156 57.321998596191406,51.7140007019043 39.61800003051758,42.56700134277344 C18.14699935913086,31.475000381469727 -3.322000026702881,20.381999969482422 -24.792999267578125,9.289999961853027 C-24.792999267578125,9.289999961853027 -80.26300048828125,-19.368000030517578 -80.26300048828125,-19.368000030517578 C-89.2300033569336,-24.000999450683594 -98.12699890136719,-28.812999725341797 -107.18099975585938,-33.275001525878906 C-107.30599975585938,-33.33700180053711 -107.42900085449219,-33.40299987792969 -107.552001953125,-33.46799850463867 C-112.65599822998047,-36.104000091552734 -117.18299865722656,-28.39299964904785 -112.06400299072266,-25.74799919128418z"></path></g></g><g opacity="1" transform="matrix(1,0,0,1,3,-8)"><g opacity="1" transform="matrix(1,0,0,1,561,12)"><path fill="rgb(204,236,195)" fill-opacity="1" d=" M-167.96499633789062,-6.493000030517578 C-167.96499633789062,-6.493000030517578 -277.9219970703125,48.917999267578125 -277.9219970703125,48.917999267578125 C-277.9219970703125,48.917999267578125 -279.65399169921875,100.86599731445312 -279.65399169921875,100.86599731445312 C-279.65399169921875,100.86599731445312 -56.277000427246094,216.01699829101562 -56.277000427246094,216.01699829101562 C-56.277000427246094,216.01699829101562 58.00899887084961,163.2030029296875 58.00899887084961,163.2030029296875 C58.00899887084961,163.2030029296875 55.4109992980957,108.65799713134766 55.4109992980957,108.65799713134766 C55.4109992980957,108.65799713134766 -167.96499633789062,-6.493000030517578 -167.96499633789062,-6.493000030517578z"></path></g><g opacity="1" transform="matrix(1,0,0,1,449.11700439453125,90.18399810791016)"><path fill="rgb(204,236,195)" fill-opacity="1" d=" M-168.76800537109375,-28.47599983215332 C-164.43600463867188,-26.183000564575195 -160.10400390625,-23.889999389648438 -155.77200317382812,-21.597000122070312 C-144.66099548339844,-15.71500015258789 -133.5489959716797,-9.833000183105469 -122.43699645996094,-3.9509999752044678 C-107.37200164794922,4.02400016784668 -92.30699920654297,11.99899959564209 -77.24099731445312,19.972999572753906 C-61.111000061035156,28.511999130249023 -44.98099899291992,37.04999923706055 -28.85099983215332,45.5880012512207 C-14.343999862670898,53.268001556396484 0.16500000655651093,60.948001861572266 14.67300033569336,68.62799835205078 C24.66900062561035,73.91899871826172 34.665000915527344,79.21099853515625 44.6609992980957,84.50199890136719 C47.071998596191406,85.77799987792969 49.48400115966797,87.05500030517578 51.895999908447266,88.33200073242188 C52.31700134277344,88.55400085449219 52.733001708984375,88.79499816894531 53.16299819946289,89.00199890136719 C55.09199905395508,89.93399810791016 56.71699905395508,89.49700164794922 58.45899963378906,88.6709976196289 C68.41799926757812,83.95099639892578 78.32499694824219,79.11900329589844 88.25700378417969,74.34400177001953 C104.3949966430664,66.58499908447266 120.53199768066406,58.82600021362305 136.6699981689453,51.066001892089844 C147.5279998779297,45.84600067138672 158.38800048828125,40.625 169.24600219726562,35.40299987792969 C169.79100036621094,35.141998291015625 170.33599853515625,34.87900161743164 170.8800048828125,34.61800003051758 C173.86099243164062,33.185001373291016 173.73399353027344,28.368999481201172 170.8800048828125,26.898000717163086 C166.5800018310547,24.68199920654297 162.27999877929688,22.465999603271484 157.9810028076172,20.25 C146.92999267578125,14.555000305175781 135.8800048828125,8.859999656677246 124.8290023803711,3.1649999618530273 C109.86799621582031,-4.545000076293945 94.90699768066406,-12.255000114440918 79.94599914550781,-19.965999603271484 C63.71699905395508,-28.329999923706055 47.487998962402344,-36.69300079345703 31.259000778198242,-45.05699920654297 C16.591999053955078,-52.61600112915039 1.9240000247955322,-60.17499923706055 -12.744000434875488,-67.73400115966797 C-23.076000213623047,-73.05899810791016 -33.40800094604492,-78.38400268554688 -43.7400016784668,-83.70899963378906 C-46.40700149536133,-85.08300018310547 -49.073001861572266,-86.45700073242188 -51.7400016784668,-87.83100128173828 C-53.99399948120117,-88.99299621582031 -55.71799850463867,-89.93399810791016 -58.43899917602539,-88.68399810791016 C-67.68499755859375,-84.44200134277344 -76.81999969482422,-79.93900299072266 -86.00700378417969,-75.56900024414062 C-102.05400085449219,-67.93499755859375 -118.10099792480469,-60.29999923706055 -134.1490020751953,-52.665000915527344 C-145.13099670410156,-47.441001892089844 -156.11199951171875,-42.21699905395508 -167.093994140625,-36.992000579833984 C-167.65199279785156,-36.72600173950195 -168.2100067138672,-36.46099853515625 -168.76800537109375,-36.19599914550781 C-170.947998046875,-35.159000396728516 -171.51699829101562,-32.0369987487793 -170.3719940185547,-30.079999923706055 C-169.06700134277344,-27.849000930786133 -166.44400024414062,-27.434999465942383 -164.25599670410156,-28.47599983215332 C-151.76600646972656,-34.417999267578125 -139.2760009765625,-40.36000061035156 -126.78600311279297,-46.301998138427734 C-106.96299743652344,-55.733001708984375 -87.13999938964844,-65.16400146484375 -67.31600189208984,-74.59500122070312 C-62.762001037597656,-76.76200103759766 -58.20600128173828,-78.92900085449219 -53.650001525878906,-81.09600067138672 C-53.650001525878906,-81.09600067138672 -58.16299819946289,-81.09600067138672 -58.16299819946289,-81.09600067138672 C-50.68199920654297,-77.24099731445312 -43.20100021362305,-73.38500213623047 -35.720001220703125,-69.52999877929688 C-17.89299964904785,-60.34299850463867 -0.06700000166893005,-51.15599822998047 17.759000778198242,-41.970001220703125 C39.44200134277344,-30.795000076293945 61.125999450683594,-19.6200008392334 82.80899810791016,-8.444999694824219 C101.44000244140625,1.156000018119812 120.06900024414062,10.756999969482422 138.6999969482422,20.358999252319336 C144.87899780273438,23.542999267578125 151.0570068359375,26.726999282836914 157.23500061035156,29.910999298095703 C160.1269989013672,31.400999069213867 163.0019989013672,33.15599822998047 165.99899291992188,34.428001403808594 C166.125,34.48099899291992 166.24600219726562,34.55500030517578 166.3679962158203,34.61800003051758 C166.3679962158203,34.61800003051758 166.3679962158203,26.898000717163086 166.3679962158203,26.898000717163086 C153.5780029296875,33.047000885009766 140.78799438476562,39.196998596191406 127.99700164794922,45.34700012207031 C107.75599670410156,55.07899856567383 87.51499938964844,64.81199645996094 67.27400207519531,74.54399871826172 C62.584999084472656,76.7979965209961 57.89699935913086,79.052001953125 53.20800018310547,81.30599975585938 C53.20800018310547,81.30599975585938 57.72100067138672,81.30599975585938 57.72100067138672,81.30599975585938 C50.32600021362305,77.39199829101562 42.93299865722656,73.47799682617188 35.53799819946289,69.56400299072266 C17.91900062561035,60.237998962402344 0.30000001192092896,50.9109992980957 -17.31800079345703,41.584999084472656 C-38.75299835205078,30.23900032043457 -60.18600082397461,18.89299964904785 -81.62100219726562,7.546999931335449 C-100.03900146484375,-2.203000068664551 -118.45800018310547,-11.95300006866455 -136.87600708007812,-21.702999114990234 C-145.8719940185547,-26.464000701904297 -154.7899932861328,-31.430999755859375 -163.88699340820312,-36 C-164.01100158691406,-36.0620002746582 -164.13299560546875,-36.130001068115234 -164.25599670410156,-36.19599914550781 C-169.33799743652344,-38.88600158691406 -173.86099243164062,-31.17099952697754 -168.76800537109375,-28.47599983215332z"></path></g><g opacity="1" transform="matrix(1,0,0,1,392.41400146484375,143.14199829101562)"><path fill="rgb(204,236,195)" fill-opacity="1" d=" M-112.06400299072266,-25.74799919128418 C-104.66200256347656,-21.923999786376953 -97.26000213623047,-18.100000381469727 -89.85800170898438,-14.274999618530273 C-72.15399932861328,-5.127999782562256 -54.44900131225586,4.01800012588501 -36.74599838256836,13.164999961853027 C-15.274999618530273,24.256999969482422 6.192999839782715,35.349998474121094 27.663000106811523,46.44200134277344 C46.15299987792969,55.994998931884766 64.64299774169922,65.5469970703125 83.13300323486328,75.0999984741211 C92.0999984741211,79.73300170898438 100.99700164794922,84.54499816894531 110.0510025024414,89.00700378417969 C110.1760025024414,89.06900024414062 110.29900360107422,89.13600158691406 110.4229965209961,89.1989974975586 C113.36499786376953,90.72000122070312 117.18299865722656,88.87100219726562 117.14800262451172,85.33899688720703 C117,69.83599853515625 116.85099792480469,54.33300018310547 116.70099639892578,38.82899856567383 C116.68099975585938,36.62200164794922 116.65899658203125,34.415000915527344 116.63800048828125,32.20800018310547 C116.62300109863281,30.680999755859375 115.80899810791016,29.082000732421875 114.42400360107422,28.347999572753906 C107.02899932861328,24.43400001525879 99.63600158691406,20.520000457763672 92.24099731445312,16.606000900268555 C74.62200164794922,7.28000020980835 57.00299835205078,-2.046999931335449 39.3849983215332,-11.373000144958496 C17.950000762939453,-22.7189998626709 -3.4830000400543213,-34.064998626708984 -24.917999267578125,-45.4109992980957 C-43.33599853515625,-55.1609992980957 -61.755001068115234,-64.91100311279297 -80.1729965209961,-74.66100311279297 C-89.16899871826172,-79.4219970703125 -98.08699798583984,-84.38899993896484 -107.18399810791016,-88.95800018310547 C-107.30799865722656,-89.0199966430664 -107.43000030517578,-89.08799743652344 -107.5530014038086,-89.15399932861328 C-110.51200103759766,-90.72000122070312 -114.27899932861328,-88.79000091552734 -114.27899932861328,-85.29399871826172 C-114.27899932861328,-85.29399871826172 -114.27899932861328,-36.46500015258789 -114.27899932861328,-36.46500015258789 C-114.27899932861328,-36.46500015258789 -114.27899932861328,-29.607999801635742 -114.27899932861328,-29.607999801635742 C-114.27899932861328,-23.854999542236328 -105.33899688720703,-23.84600067138672 -105.33899688720703,-29.607999801635742 C-105.33899688720703,-29.607999801635742 -105.33899688720703,-78.43699645996094 -105.33899688720703,-78.43699645996094 C-105.33899688720703,-78.43699645996094 -105.33899688720703,-85.29399871826172 -105.33899688720703,-85.29399871826172 C-107.58100128173828,-84.00700378417969 -109.8219985961914,-82.72100067138672 -112.06400299072266,-81.43399810791016 C-104.66999816894531,-77.51899719238281 -97.2760009765625,-73.6050033569336 -89.88200378417969,-69.69100189208984 C-72.26399993896484,-60.3650016784668 -54.64500045776367,-51.03900146484375 -37.025001525878906,-41.71200180053711 C-15.592000007629395,-30.365999221801758 5.843999862670898,-19.020000457763672 27.277000427246094,-7.673999786376953 C45.69599914550781,2.0759999752044678 64.11499786376953,11.824999809265137 82.53299713134766,21.575000762939453 C88.64399719238281,24.809999465942383 94.75399780273438,28.04400062561035 100.86399841308594,31.27899932861328 C103.7249984741211,32.792999267578125 106.56900024414062,34.5880012512207 109.54299926757812,35.87300109863281 C109.66899871826172,35.926998138427734 109.79000091552734,36.00299835205078 109.91100311279297,36.06800079345703 C109.17400360107422,34.78200149536133 108.43499755859375,33.494998931884766 107.6969985961914,32.20800018310547 C107.84700012207031,47.71200180053711 107.99600219726562,63.21500015258789 108.14399719238281,78.71900177001953 C108.16600036621094,80.9260025024414 108.18699645996094,83.13300323486328 108.20800018310547,85.33899688720703 C108.20800018310547,85.33899688720703 114.93499755859375,81.4800033569336 114.93499755859375,81.4800033569336 C107.53199768066406,77.65499877929688 100.12999725341797,73.83100128173828 92.72699737548828,70.00599670410156 C75.02400207519531,60.86000061035156 57.31999969482422,51.7130012512207 39.61600112915039,42.56700134277344 C18.145999908447266,31.474000930786133 -3.322000026702881,20.381999969482422 -24.792999267578125,9.288999557495117 C-43.28200149536133,-0.2630000114440918 -61.77299880981445,-9.815999984741211 -80.26300048828125,-19.368999481201172 C-89.2300033569336,-24.000999450683594 -98.12699890136719,-28.812999725341797 -107.18099975585938,-33.2760009765625 C-107.30599975585938,-33.33700180053711 -107.42900085449219,-33.40399932861328 -107.5530014038086,-33.46799850463867 C-112.65699768066406,-36.10499954223633 -117.18299865722656,-28.39299964904785 -112.06400299072266,-25.74799919128418z"></path></g><g opacity="1" transform="matrix(1,0,0,1,561.1510009765625,174.94700622558594)"><path fill="rgb(9,9,9)" fill-opacity="1" d=" M-53.801998138427734,57.39400100708008 C-41.125,51.415000915527344 -28.447999954223633,45.4370002746582 -15.77299976348877,39.45800018310547 C4.443999767303467,29.92300033569336 24.660999298095703,20.386999130249023 44.87799835205078,10.85200023651123 C49.534000396728516,8.654999732971191 54.189998626708984,6.459000110626221 58.84600067138672,4.263000011444092 C60.23400115966797,3.6080000400543213 61.060001373291016,1.871000051498413 61.060001373291016,0.40400001406669617 C61.060001373291016,0.40400001406669617 61.060001373291016,-47.189998626708984 61.060001373291016,-47.189998626708984 C61.060001373291016,-47.189998626708984 61.060001373291016,-54.005001068115234 61.060001373291016,-54.005001068115234 C61.060001373291016,-57.60100173950195 57.316001892089844,-59.29899978637695 54.334999084472656,-57.8650016784668 C41.54499816894531,-51.715999603271484 28.7549991607666,-45.566001892089844 15.96399974822998,-39.41699981689453 C-4.2779998779296875,-29.68400001525879 -24.518999099731445,-19.951000213623047 -44.7599983215332,-10.218999862670898 C-49.448001861572266,-7.964000225067139 -54.13800048828125,-5.710000038146973 -58.82600021362305,-3.4560000896453857 C-60.20199966430664,-2.7939999103546143 -61.053001403808594,-1.0679999589920044 -61.03900146484375,0.40400001406669617 C-60.88999938964844,15.907999992370605 -60.7400016784668,31.40999984741211 -60.59199905395508,46.91400146484375 C-60.57099914550781,49.12099838256836 -60.54899978637695,51.327999114990234 -60.52899932861328,53.534000396728516 C-60.472999572753906,59.284000396728516 -51.53200149536133,59.29800033569336 -51.5880012512207,53.534000396728516 C-51.73699951171875,38.03099822998047 -51.88600158691406,22.527000427246094 -52.03499984741211,7.0229997634887695 C-52.055999755859375,4.816999912261963 -52.077999114990234,2.6110000610351562 -52.099998474121094,0.40400001406669617 C-52.83700180053711,1.690000057220459 -53.57500076293945,2.9769999980926514 -54.31399917602539,4.263000011444092 C-41.52399826049805,-1.8869999647140503 -28.733999252319336,-8.03600025177002 -15.944000244140625,-14.1850004196167 C4.298999786376953,-23.917999267578125 24.541000366210938,-33.650001525878906 44.78200149536133,-43.382999420166016 C49.470001220703125,-45.637001037597656 54.159000396728516,-47.89099884033203 58.84600067138672,-50.145999908447266 C56.60499954223633,-51.43199920654297 54.362998962402344,-52.71900177001953 52.12099838256836,-54.005001068115234 C52.12099838256836,-54.005001068115234 52.12099838256836,-6.4120001792907715 52.12099838256836,-6.4120001792907715 C52.12099838256836,-6.4120001792907715 52.12099838256836,0.40400001406669617 52.12099838256836,0.40400001406669617 C52.858001708984375,-0.8830000162124634 53.59600067138672,-2.1689999103546143 54.334999084472656,-3.4560000896453857 C41.65800094604492,2.5230000019073486 28.981000900268555,8.50100040435791 16.30500030517578,14.479999542236328 C-3.9110000133514404,24.014999389648438 -24.128999710083008,33.55099868774414 -44.34600067138672,43.08599853515625 C-49.00199890136719,45.28200149536133 -53.65800094604492,47.47800064086914 -58.314998626708984,49.67399978637695 C-60.49800109863281,50.70500183105469 -61.06100082397461,53.8390007019043 -59.91899871826172,55.79100036621094 C-58.611000061035156,58.027000427246094 -55.99300003051758,58.428001403808594 -53.801998138427734,57.39400100708008z"></path></g><g opacity="1" transform="matrix(1,0,0,1,2,0)"><path fill="rgb(9,9,9)" fill-opacity="1" d=" M617,176 C617,176 506,225 506,225 C506,225 504,175 504,175 C504,175 616,122 616,122 C616,122 617,176 617,176z"></path></g></g></g></g><g transform="matrix(0.6084191799163818,0,0,0.6499999761581421,250.330810546875,214.01138305664062)" opacity="1" style="display: block;"><g opacity="1" transform="matrix(1,0,0,1,14.345000267028809,-37.89500045776367)"><path fill="rgb(204,79,255)" fill-opacity="1" d=" M0,-82 C45.25579833984375,-82 82,-45.25579833984375 82,0 C82,45.25579833984375 45.25579833984375,82 0,82 C-45.25579833984375,82 -82,45.25579833984375 -82,0 C-82,-45.25579833984375 -45.25579833984375,-82 0,-82z"></path></g></g></g></svg>